%TF.GenerationSoftware,KiCad,Pcbnew,(6.0.9)*%
%TF.CreationDate,2022-12-06T17:52:29-03:00*%
%TF.ProjectId,anemometer,616e656d-6f6d-4657-9465-722e6b696361,rev?*%
%TF.SameCoordinates,Original*%
%TF.FileFunction,Drillmap*%
%TF.FilePolarity,Positive*%
%FSLAX45Y45*%
G04 Gerber Fmt 4.5, Leading zero omitted, Abs format (unit mm)*
G04 Created by KiCad (PCBNEW (6.0.9)) date 2022-12-06 17:52:29*
%MOMM*%
%LPD*%
G01*
G04 APERTURE LIST*
%ADD10C,0.050000*%
%ADD11C,0.200000*%
%ADD12C,0.080000*%
%ADD13C,0.100000*%
%ADD14C,0.110000*%
%ADD15C,0.120000*%
%ADD16C,0.152000*%
%ADD17C,0.320000*%
G04 APERTURE END LIST*
D10*
X7620000Y-3810000D02*
X22860000Y-3810000D01*
X22860000Y-3810000D02*
X22860000Y-11430000D01*
X22860000Y-11430000D02*
X7620000Y-11430000D01*
X7620000Y-11430000D02*
X7620000Y-3810000D01*
D11*
D10*
X8611000Y-6642500D02*
X8661000Y-6692500D01*
X8661000Y-6642500D02*
X8611000Y-6692500D01*
X9500000Y-6642500D02*
X9550000Y-6692500D01*
X9550000Y-6642500D02*
X9500000Y-6692500D01*
X9500000Y-6960000D02*
X9550000Y-7010000D01*
X9550000Y-6960000D02*
X9500000Y-7010000D01*
X10198500Y-7976000D02*
X10248500Y-8026000D01*
X10248500Y-7976000D02*
X10198500Y-8026000D01*
X11595500Y-4547000D02*
X11645500Y-4597000D01*
X11645500Y-4547000D02*
X11595500Y-4597000D01*
X11722500Y-5690000D02*
X11772500Y-5740000D01*
X11772500Y-5690000D02*
X11722500Y-5740000D01*
X12167000Y-8103000D02*
X12217000Y-8153000D01*
X12217000Y-8103000D02*
X12167000Y-8153000D01*
X12294000Y-4229500D02*
X12344000Y-4279500D01*
X12344000Y-4229500D02*
X12294000Y-4279500D01*
X12548000Y-5436000D02*
X12598000Y-5486000D01*
X12598000Y-5436000D02*
X12548000Y-5486000D01*
X12802000Y-5563000D02*
X12852000Y-5613000D01*
X12852000Y-5563000D02*
X12802000Y-5613000D01*
X13310000Y-8103000D02*
X13360000Y-8153000D01*
X13360000Y-8103000D02*
X13310000Y-8153000D01*
X14326000Y-5817000D02*
X14376000Y-5867000D01*
X14376000Y-5817000D02*
X14326000Y-5867000D01*
X15024500Y-5880500D02*
X15074500Y-5930500D01*
X15074500Y-5880500D02*
X15024500Y-5930500D01*
X15405500Y-5436000D02*
X15455500Y-5486000D01*
X15455500Y-5436000D02*
X15405500Y-5486000D01*
X15723000Y-8865000D02*
X15773000Y-8915000D01*
X15773000Y-8865000D02*
X15723000Y-8915000D01*
X15850000Y-5563000D02*
X15900000Y-5613000D01*
X15900000Y-5563000D02*
X15850000Y-5613000D01*
X15974500Y-7465500D02*
X16024500Y-7515500D01*
X16024500Y-7465500D02*
X15974500Y-7515500D01*
X16739000Y-6706000D02*
X16789000Y-6756000D01*
X16789000Y-6706000D02*
X16739000Y-6756000D01*
X16739000Y-8865000D02*
X16789000Y-8915000D01*
X16789000Y-8865000D02*
X16739000Y-8915000D01*
X16739000Y-9246000D02*
X16789000Y-9296000D01*
X16789000Y-9246000D02*
X16739000Y-9296000D01*
X16739000Y-9627000D02*
X16789000Y-9677000D01*
X16789000Y-9627000D02*
X16739000Y-9677000D01*
X17755000Y-7341000D02*
X17805000Y-7391000D01*
X17805000Y-7341000D02*
X17755000Y-7391000D01*
X20168000Y-9881000D02*
X20218000Y-9931000D01*
X20218000Y-9881000D02*
X20168000Y-9931000D01*
X21311000Y-9246000D02*
X21361000Y-9296000D01*
X21361000Y-9246000D02*
X21311000Y-9296000D01*
D12*
X12232000Y-6731000D02*
G75*
G03*
X12232000Y-6731000I-40000J0D01*
G01*
X12359000Y-4572000D02*
G75*
G03*
X12359000Y-4572000I-40000J0D01*
G01*
X12359000Y-5588000D02*
G75*
G03*
X12359000Y-5588000I-40000J0D01*
G01*
X12831000Y-4826000D02*
G75*
G03*
X12831000Y-4826000I-40000J0D01*
G01*
X12831000Y-5080000D02*
G75*
G03*
X12831000Y-5080000I-40000J0D01*
G01*
X12831000Y-5334000D02*
G75*
G03*
X12831000Y-5334000I-40000J0D01*
G01*
X13121000Y-5715000D02*
G75*
G03*
X13121000Y-5715000I-40000J0D01*
G01*
X13248000Y-5334000D02*
G75*
G03*
X13248000Y-5334000I-40000J0D01*
G01*
X13248000Y-6731000D02*
G75*
G03*
X13248000Y-6731000I-40000J0D01*
G01*
X13376000Y-4826000D02*
G75*
G03*
X13376000Y-4826000I-40000J0D01*
G01*
X13630000Y-4826000D02*
G75*
G03*
X13630000Y-4826000I-40000J0D01*
G01*
X13883000Y-5715000D02*
G75*
G03*
X13883000Y-5715000I-40000J0D01*
G01*
X13884000Y-4826000D02*
G75*
G03*
X13884000Y-4826000I-40000J0D01*
G01*
X14010000Y-5334000D02*
G75*
G03*
X14010000Y-5334000I-40000J0D01*
G01*
X14264000Y-5207000D02*
G75*
G03*
X14264000Y-5207000I-40000J0D01*
G01*
X15216500Y-9207500D02*
G75*
G03*
X15216500Y-9207500I-40000J0D01*
G01*
X15216500Y-10223500D02*
G75*
G03*
X15216500Y-10223500I-40000J0D01*
G01*
X15280000Y-5207000D02*
G75*
G03*
X15280000Y-5207000I-40000J0D01*
G01*
X15280000Y-6350000D02*
G75*
G03*
X15280000Y-6350000I-40000J0D01*
G01*
X15280000Y-6600000D02*
G75*
G03*
X15280000Y-6600000I-40000J0D01*
G01*
X15789000Y-5970500D02*
G75*
G03*
X15789000Y-5970500I-40000J0D01*
G01*
X15789000Y-6732500D02*
G75*
G03*
X15789000Y-6732500I-40000J0D01*
G01*
X16043000Y-5970500D02*
G75*
G03*
X16043000Y-5970500I-40000J0D01*
G01*
X16043000Y-6732500D02*
G75*
G03*
X16043000Y-6732500I-40000J0D01*
G01*
X16297000Y-5970500D02*
G75*
G03*
X16297000Y-5970500I-40000J0D01*
G01*
X16297000Y-6732500D02*
G75*
G03*
X16297000Y-6732500I-40000J0D01*
G01*
X16359500Y-5588000D02*
G75*
G03*
X16359500Y-5588000I-40000J0D01*
G01*
X16551000Y-5970500D02*
G75*
G03*
X16551000Y-5970500I-40000J0D01*
G01*
X16551000Y-6732500D02*
G75*
G03*
X16551000Y-6732500I-40000J0D01*
G01*
X16931000Y-4699000D02*
G75*
G03*
X16931000Y-4699000I-40000J0D01*
G01*
X16931000Y-5080000D02*
G75*
G03*
X16931000Y-5080000I-40000J0D01*
G01*
X17058000Y-5969000D02*
G75*
G03*
X17058000Y-5969000I-40000J0D01*
G01*
X17058000Y-6985000D02*
G75*
G03*
X17058000Y-6985000I-40000J0D01*
G01*
X17375500Y-5588000D02*
G75*
G03*
X17375500Y-5588000I-40000J0D01*
G01*
X17566000Y-8509000D02*
G75*
G03*
X17566000Y-8509000I-40000J0D01*
G01*
X17566000Y-9017000D02*
G75*
G03*
X17566000Y-9017000I-40000J0D01*
G01*
X17693000Y-4699000D02*
G75*
G03*
X17693000Y-4699000I-40000J0D01*
G01*
X17693000Y-5842000D02*
G75*
G03*
X17693000Y-5842000I-40000J0D01*
G01*
X17693000Y-6477000D02*
G75*
G03*
X17693000Y-6477000I-40000J0D01*
G01*
X17693000Y-6727000D02*
G75*
G03*
X17693000Y-6727000I-40000J0D01*
G01*
X17947000Y-5080000D02*
G75*
G03*
X17947000Y-5080000I-40000J0D01*
G01*
X17947000Y-7751000D02*
G75*
G03*
X17947000Y-7751000I-40000J0D01*
G01*
X17947000Y-8001000D02*
G75*
G03*
X17947000Y-8001000I-40000J0D01*
G01*
X18074000Y-4572000D02*
G75*
G03*
X18074000Y-4572000I-40000J0D01*
G01*
X18328000Y-5080000D02*
G75*
G03*
X18328000Y-5080000I-40000J0D01*
G01*
X18455500Y-6986000D02*
G75*
G03*
X18455500Y-6986000I-40000J0D01*
G01*
X18455500Y-7748000D02*
G75*
G03*
X18455500Y-7748000I-40000J0D01*
G01*
X18459000Y-6477000D02*
G75*
G03*
X18459000Y-6477000I-40000J0D01*
G01*
X18582000Y-5080000D02*
G75*
G03*
X18582000Y-5080000I-40000J0D01*
G01*
X18582000Y-8509000D02*
G75*
G03*
X18582000Y-8509000I-40000J0D01*
G01*
X18582000Y-9017000D02*
G75*
G03*
X18582000Y-9017000I-40000J0D01*
G01*
X18709000Y-5842000D02*
G75*
G03*
X18709000Y-5842000I-40000J0D01*
G01*
X18709000Y-6477000D02*
G75*
G03*
X18709000Y-6477000I-40000J0D01*
G01*
X18709500Y-6986000D02*
G75*
G03*
X18709500Y-6986000I-40000J0D01*
G01*
X18709500Y-7748000D02*
G75*
G03*
X18709500Y-7748000I-40000J0D01*
G01*
X18836000Y-5080000D02*
G75*
G03*
X18836000Y-5080000I-40000J0D01*
G01*
X18836000Y-9779000D02*
G75*
G03*
X18836000Y-9779000I-40000J0D01*
G01*
X18836000Y-10795000D02*
G75*
G03*
X18836000Y-10795000I-40000J0D01*
G01*
X18963000Y-9017000D02*
G75*
G03*
X18963000Y-9017000I-40000J0D01*
G01*
X18963500Y-6986000D02*
G75*
G03*
X18963500Y-6986000I-40000J0D01*
G01*
X18963500Y-7748000D02*
G75*
G03*
X18963500Y-7748000I-40000J0D01*
G01*
X19090000Y-4572000D02*
G75*
G03*
X19090000Y-4572000I-40000J0D01*
G01*
X19090000Y-5969000D02*
G75*
G03*
X19090000Y-5969000I-40000J0D01*
G01*
X19217500Y-6986000D02*
G75*
G03*
X19217500Y-6986000I-40000J0D01*
G01*
X19217500Y-7748000D02*
G75*
G03*
X19217500Y-7748000I-40000J0D01*
G01*
X19471000Y-8509000D02*
G75*
G03*
X19471000Y-8509000I-40000J0D01*
G01*
X19471500Y-6986000D02*
G75*
G03*
X19471500Y-6986000I-40000J0D01*
G01*
X19471500Y-7748000D02*
G75*
G03*
X19471500Y-7748000I-40000J0D01*
G01*
X19602000Y-6477000D02*
G75*
G03*
X19602000Y-6477000I-40000J0D01*
G01*
X19725500Y-6986000D02*
G75*
G03*
X19725500Y-6986000I-40000J0D01*
G01*
X19725500Y-7748000D02*
G75*
G03*
X19725500Y-7748000I-40000J0D01*
G01*
X19979000Y-9017000D02*
G75*
G03*
X19979000Y-9017000I-40000J0D01*
G01*
X19979500Y-6986000D02*
G75*
G03*
X19979500Y-6986000I-40000J0D01*
G01*
X19979500Y-7748000D02*
G75*
G03*
X19979500Y-7748000I-40000J0D01*
G01*
X20102000Y-6477000D02*
G75*
G03*
X20102000Y-6477000I-40000J0D01*
G01*
X20106000Y-5969000D02*
G75*
G03*
X20106000Y-5969000I-40000J0D01*
G01*
X20487000Y-6858000D02*
G75*
G03*
X20487000Y-6858000I-40000J0D01*
G01*
X20487000Y-7874000D02*
G75*
G03*
X20487000Y-7874000I-40000J0D01*
G01*
X20487000Y-8509000D02*
G75*
G03*
X20487000Y-8509000I-40000J0D01*
G01*
X20868000Y-6858000D02*
G75*
G03*
X20868000Y-6858000I-40000J0D01*
G01*
X20868000Y-7874000D02*
G75*
G03*
X20868000Y-7874000I-40000J0D01*
G01*
D13*
X9080500Y-9665500D02*
X9080500Y-9765500D01*
X9030500Y-9715500D02*
X9130500Y-9715500D01*
X9080500Y-9919500D02*
X9080500Y-10019500D01*
X9030500Y-9969500D02*
X9130500Y-9969500D01*
X9080500Y-10173500D02*
X9080500Y-10273500D01*
X9030500Y-10223500D02*
X9130500Y-10223500D01*
X9271000Y-6046000D02*
X9271000Y-6146000D01*
X9221000Y-6096000D02*
X9321000Y-6096000D01*
X9271000Y-8586000D02*
X9271000Y-8686000D01*
X9221000Y-8636000D02*
X9321000Y-8636000D01*
X9396500Y-4903000D02*
X9396500Y-5003000D01*
X9346500Y-4953000D02*
X9446500Y-4953000D01*
X9399500Y-5408500D02*
X9399500Y-5508500D01*
X9349500Y-5458500D02*
X9449500Y-5458500D01*
X9525000Y-6046000D02*
X9525000Y-6146000D01*
X9475000Y-6096000D02*
X9575000Y-6096000D01*
X9525000Y-8586000D02*
X9525000Y-8686000D01*
X9475000Y-8636000D02*
X9575000Y-8636000D01*
X9650500Y-4903000D02*
X9650500Y-5003000D01*
X9600500Y-4953000D02*
X9700500Y-4953000D01*
X9653500Y-5408500D02*
X9653500Y-5508500D01*
X9603500Y-5458500D02*
X9703500Y-5458500D01*
X9779000Y-6046000D02*
X9779000Y-6146000D01*
X9729000Y-6096000D02*
X9829000Y-6096000D01*
X9779000Y-8586000D02*
X9779000Y-8686000D01*
X9729000Y-8636000D02*
X9829000Y-8636000D01*
X9842500Y-9665500D02*
X9842500Y-9765500D01*
X9792500Y-9715500D02*
X9892500Y-9715500D01*
X9842500Y-9919500D02*
X9842500Y-10019500D01*
X9792500Y-9969500D02*
X9892500Y-9969500D01*
X9842500Y-10173500D02*
X9842500Y-10273500D01*
X9792500Y-10223500D02*
X9892500Y-10223500D01*
X9904500Y-4903000D02*
X9904500Y-5003000D01*
X9854500Y-4953000D02*
X9954500Y-4953000D01*
X9907500Y-5408500D02*
X9907500Y-5508500D01*
X9857500Y-5458500D02*
X9957500Y-5458500D01*
X10033000Y-6046000D02*
X10033000Y-6146000D01*
X9983000Y-6096000D02*
X10083000Y-6096000D01*
X10033000Y-8586000D02*
X10033000Y-8686000D01*
X9983000Y-8636000D02*
X10083000Y-8636000D01*
X10287000Y-6046000D02*
X10287000Y-6146000D01*
X10237000Y-6096000D02*
X10337000Y-6096000D01*
X10287000Y-8586000D02*
X10287000Y-8686000D01*
X10237000Y-8636000D02*
X10337000Y-8636000D01*
X10541000Y-6046000D02*
X10541000Y-6146000D01*
X10491000Y-6096000D02*
X10591000Y-6096000D01*
X10541000Y-8586000D02*
X10541000Y-8686000D01*
X10491000Y-8636000D02*
X10591000Y-8636000D01*
X10604500Y-9665500D02*
X10604500Y-9765500D01*
X10554500Y-9715500D02*
X10654500Y-9715500D01*
X10604500Y-9919500D02*
X10604500Y-10019500D01*
X10554500Y-9969500D02*
X10654500Y-9969500D01*
X10604500Y-10173500D02*
X10604500Y-10273500D01*
X10554500Y-10223500D02*
X10654500Y-10223500D01*
X10795000Y-6046000D02*
X10795000Y-6146000D01*
X10745000Y-6096000D02*
X10845000Y-6096000D01*
X10795000Y-8586000D02*
X10795000Y-8686000D01*
X10745000Y-8636000D02*
X10845000Y-8636000D01*
X11049000Y-6046000D02*
X11049000Y-6146000D01*
X10999000Y-6096000D02*
X11099000Y-6096000D01*
X11049000Y-8586000D02*
X11049000Y-8686000D01*
X10999000Y-8636000D02*
X11099000Y-8636000D01*
X11303000Y-6046000D02*
X11303000Y-6146000D01*
X11253000Y-6096000D02*
X11353000Y-6096000D01*
X11303000Y-8586000D02*
X11303000Y-8686000D01*
X11253000Y-8636000D02*
X11353000Y-8636000D01*
X11366500Y-9665500D02*
X11366500Y-9765500D01*
X11316500Y-9715500D02*
X11416500Y-9715500D01*
X11366500Y-9919500D02*
X11366500Y-10019500D01*
X11316500Y-9969500D02*
X11416500Y-9969500D01*
X11366500Y-10173500D02*
X11366500Y-10273500D01*
X11316500Y-10223500D02*
X11416500Y-10223500D01*
X11557000Y-6046000D02*
X11557000Y-6146000D01*
X11507000Y-6096000D02*
X11607000Y-6096000D01*
X11557000Y-8586000D02*
X11557000Y-8686000D01*
X11507000Y-8636000D02*
X11607000Y-8636000D01*
X11811000Y-6046000D02*
X11811000Y-6146000D01*
X11761000Y-6096000D02*
X11861000Y-6096000D01*
X11811000Y-8586000D02*
X11811000Y-8686000D01*
X11761000Y-8636000D02*
X11861000Y-8636000D01*
X12065000Y-6046000D02*
X12065000Y-6146000D01*
X12015000Y-6096000D02*
X12115000Y-6096000D01*
X12065000Y-8586000D02*
X12065000Y-8686000D01*
X12015000Y-8636000D02*
X12115000Y-8636000D01*
X12128500Y-9665500D02*
X12128500Y-9765500D01*
X12078500Y-9715500D02*
X12178500Y-9715500D01*
X12128500Y-9919500D02*
X12128500Y-10019500D01*
X12078500Y-9969500D02*
X12178500Y-9969500D01*
X12128500Y-10173500D02*
X12128500Y-10273500D01*
X12078500Y-10223500D02*
X12178500Y-10223500D01*
X12319000Y-6046000D02*
X12319000Y-6146000D01*
X12269000Y-6096000D02*
X12369000Y-6096000D01*
X12319000Y-8586000D02*
X12319000Y-8686000D01*
X12269000Y-8636000D02*
X12369000Y-8636000D01*
X12573000Y-6046000D02*
X12573000Y-6146000D01*
X12523000Y-6096000D02*
X12623000Y-6096000D01*
X12573000Y-8586000D02*
X12573000Y-8686000D01*
X12523000Y-8636000D02*
X12623000Y-8636000D01*
X12827000Y-6046000D02*
X12827000Y-6146000D01*
X12777000Y-6096000D02*
X12877000Y-6096000D01*
X12827000Y-8586000D02*
X12827000Y-8686000D01*
X12777000Y-8636000D02*
X12877000Y-8636000D01*
X12890500Y-9665500D02*
X12890500Y-9765500D01*
X12840500Y-9715500D02*
X12940500Y-9715500D01*
X12890500Y-9919500D02*
X12890500Y-10019500D01*
X12840500Y-9969500D02*
X12940500Y-9969500D01*
X12890500Y-10173500D02*
X12890500Y-10273500D01*
X12840500Y-10223500D02*
X12940500Y-10223500D01*
X13652500Y-9665500D02*
X13652500Y-9765500D01*
X13602500Y-9715500D02*
X13702500Y-9715500D01*
X13652500Y-9919500D02*
X13652500Y-10019500D01*
X13602500Y-9969500D02*
X13702500Y-9969500D01*
X13652500Y-10173500D02*
X13652500Y-10273500D01*
X13602500Y-10223500D02*
X13702500Y-10223500D01*
X14414500Y-9665500D02*
X14414500Y-9765500D01*
X14364500Y-9715500D02*
X14464500Y-9715500D01*
X14414500Y-9919500D02*
X14414500Y-10019500D01*
X14364500Y-9969500D02*
X14464500Y-9969500D01*
X14414500Y-10173500D02*
X14414500Y-10273500D01*
X14364500Y-10223500D02*
X14464500Y-10223500D01*
X14602500Y-5537000D02*
X14602500Y-5637000D01*
X14552500Y-5587000D02*
X14652500Y-5587000D01*
X14602500Y-5791000D02*
X14602500Y-5891000D01*
X14552500Y-5841000D02*
X14652500Y-5841000D01*
X14602500Y-6045000D02*
X14602500Y-6145000D01*
X14552500Y-6095000D02*
X14652500Y-6095000D01*
X14602500Y-6299000D02*
X14602500Y-6399000D01*
X14552500Y-6349000D02*
X14652500Y-6349000D01*
X14602500Y-7186500D02*
X14602500Y-7286500D01*
X14552500Y-7236500D02*
X14652500Y-7236500D01*
X14602500Y-7440500D02*
X14602500Y-7540500D01*
X14552500Y-7490500D02*
X14652500Y-7490500D01*
X14602500Y-7694500D02*
X14602500Y-7794500D01*
X14552500Y-7744500D02*
X14652500Y-7744500D01*
X14602500Y-7948500D02*
X14602500Y-8048500D01*
X14552500Y-7998500D02*
X14652500Y-7998500D01*
X14602500Y-8202500D02*
X14602500Y-8302500D01*
X14552500Y-8252500D02*
X14652500Y-8252500D01*
X14602500Y-8456500D02*
X14602500Y-8556500D01*
X14552500Y-8506500D02*
X14652500Y-8506500D01*
X16380500Y-7440000D02*
X16380500Y-7540000D01*
X16330500Y-7490000D02*
X16430500Y-7490000D01*
X16380500Y-7694000D02*
X16380500Y-7794000D01*
X16330500Y-7744000D02*
X16430500Y-7744000D01*
X16380500Y-7948000D02*
X16380500Y-8048000D01*
X16330500Y-7998000D02*
X16430500Y-7998000D01*
X16380500Y-8202000D02*
X16380500Y-8302000D01*
X16330500Y-8252000D02*
X16430500Y-8252000D01*
X16380500Y-8456000D02*
X16380500Y-8556000D01*
X16330500Y-8506000D02*
X16430500Y-8506000D01*
X16380500Y-8710000D02*
X16380500Y-8810000D01*
X16330500Y-8760000D02*
X16430500Y-8760000D01*
X16380500Y-8964000D02*
X16380500Y-9064000D01*
X16330500Y-9014000D02*
X16430500Y-9014000D01*
X16380500Y-9218000D02*
X16380500Y-9318000D01*
X16330500Y-9268000D02*
X16430500Y-9268000D01*
X16380500Y-9472000D02*
X16380500Y-9572000D01*
X16330500Y-9522000D02*
X16430500Y-9522000D01*
X16380500Y-9726000D02*
X16380500Y-9826000D01*
X16330500Y-9776000D02*
X16430500Y-9776000D01*
D14*
X19627891Y-4864891D02*
X19627891Y-4787109D01*
X19550109Y-4787109D01*
X19550109Y-4864891D01*
X19627891Y-4864891D01*
X19627891Y-5118891D02*
X19627891Y-5041109D01*
X19550109Y-5041109D01*
X19550109Y-5118891D01*
X19627891Y-5118891D01*
X19627891Y-5372891D02*
X19627891Y-5295109D01*
X19550109Y-5295109D01*
X19550109Y-5372891D01*
X19627891Y-5372891D01*
D15*
X21590000Y-6410000D02*
X21650000Y-6350000D01*
X21590000Y-6290000D01*
X21530000Y-6350000D01*
X21590000Y-6410000D01*
X21590000Y-7934000D02*
X21650000Y-7874000D01*
X21590000Y-7814000D01*
X21530000Y-7874000D01*
X21590000Y-7934000D01*
D16*
X10719000Y-5004000D02*
X10871000Y-5156000D01*
X10871000Y-5004000D02*
X10719000Y-5156000D01*
X10871000Y-5080000D02*
G75*
G03*
X10871000Y-5080000I-76000J0D01*
G01*
X11227000Y-5004000D02*
X11379000Y-5156000D01*
X11379000Y-5004000D02*
X11227000Y-5156000D01*
X11379000Y-5080000D02*
G75*
G03*
X11379000Y-5080000I-76000J0D01*
G01*
X11735000Y-5004000D02*
X11887000Y-5156000D01*
X11887000Y-5004000D02*
X11735000Y-5156000D01*
X11887000Y-5080000D02*
G75*
G03*
X11887000Y-5080000I-76000J0D01*
G01*
X15799000Y-4877000D02*
X15951000Y-5029000D01*
X15951000Y-4877000D02*
X15799000Y-5029000D01*
X15951000Y-4953000D02*
G75*
G03*
X15951000Y-4953000I-76000J0D01*
G01*
X16307000Y-4877000D02*
X16459000Y-5029000D01*
X16459000Y-4877000D02*
X16307000Y-5029000D01*
X16459000Y-4953000D02*
G75*
G03*
X16459000Y-4953000I-76000J0D01*
G01*
X17704000Y-10592000D02*
X17856000Y-10744000D01*
X17856000Y-10592000D02*
X17704000Y-10744000D01*
X17856000Y-10668000D02*
G75*
G03*
X17856000Y-10668000I-76000J0D01*
G01*
X18212000Y-10592000D02*
X18364000Y-10744000D01*
X18364000Y-10592000D02*
X18212000Y-10744000D01*
X18364000Y-10668000D02*
G75*
G03*
X18364000Y-10668000I-76000J0D01*
G01*
X19736000Y-10465000D02*
X19888000Y-10617000D01*
X19888000Y-10465000D02*
X19736000Y-10617000D01*
X19888000Y-10541000D02*
G75*
G03*
X19888000Y-10541000I-76000J0D01*
G01*
X20244000Y-10465000D02*
X20396000Y-10617000D01*
X20396000Y-10465000D02*
X20244000Y-10617000D01*
X20396000Y-10541000D02*
G75*
G03*
X20396000Y-10541000I-76000J0D01*
G01*
X20752000Y-10465000D02*
X20904000Y-10617000D01*
X20904000Y-10465000D02*
X20752000Y-10617000D01*
X20904000Y-10541000D02*
G75*
G03*
X20904000Y-10541000I-76000J0D01*
G01*
X21260000Y-10465000D02*
X21412000Y-10617000D01*
X21412000Y-10465000D02*
X21260000Y-10617000D01*
X21412000Y-10541000D02*
G75*
G03*
X21412000Y-10541000I-76000J0D01*
G01*
D17*
X7841000Y-4031000D02*
X8161000Y-4351000D01*
X8161000Y-4031000D02*
X7841000Y-4351000D01*
X8001000Y-4031000D02*
X8001000Y-4351000D01*
X7841000Y-4191000D02*
X8161000Y-4191000D01*
X7841000Y-10889000D02*
X8161000Y-11209000D01*
X8161000Y-10889000D02*
X7841000Y-11209000D01*
X8001000Y-10889000D02*
X8001000Y-11209000D01*
X7841000Y-11049000D02*
X8161000Y-11049000D01*
X22319000Y-4031000D02*
X22639000Y-4351000D01*
X22639000Y-4031000D02*
X22319000Y-4351000D01*
X22479000Y-4031000D02*
X22479000Y-4351000D01*
X22319000Y-4191000D02*
X22639000Y-4191000D01*
X22319000Y-10889000D02*
X22639000Y-11209000D01*
X22639000Y-10889000D02*
X22319000Y-11209000D01*
X22479000Y-10889000D02*
X22479000Y-11209000D01*
X22319000Y-11049000D02*
X22639000Y-11049000D01*
D11*
X7875119Y-11742976D02*
X7875119Y-11542976D01*
X7922738Y-11542976D01*
X7951309Y-11552500D01*
X7970357Y-11571548D01*
X7979881Y-11590595D01*
X7989405Y-11628690D01*
X7989405Y-11657262D01*
X7979881Y-11695357D01*
X7970357Y-11714405D01*
X7951309Y-11733452D01*
X7922738Y-11742976D01*
X7875119Y-11742976D01*
X8075119Y-11742976D02*
X8075119Y-11609643D01*
X8075119Y-11647738D02*
X8084643Y-11628690D01*
X8094167Y-11619167D01*
X8113214Y-11609643D01*
X8132262Y-11609643D01*
X8198928Y-11742976D02*
X8198928Y-11609643D01*
X8198928Y-11542976D02*
X8189405Y-11552500D01*
X8198928Y-11562024D01*
X8208452Y-11552500D01*
X8198928Y-11542976D01*
X8198928Y-11562024D01*
X8322738Y-11742976D02*
X8303690Y-11733452D01*
X8294167Y-11714405D01*
X8294167Y-11542976D01*
X8427500Y-11742976D02*
X8408452Y-11733452D01*
X8398929Y-11714405D01*
X8398929Y-11542976D01*
X8656071Y-11742976D02*
X8656071Y-11542976D01*
X8722738Y-11685833D01*
X8789405Y-11542976D01*
X8789405Y-11742976D01*
X8970357Y-11742976D02*
X8970357Y-11638214D01*
X8960833Y-11619167D01*
X8941786Y-11609643D01*
X8903690Y-11609643D01*
X8884643Y-11619167D01*
X8970357Y-11733452D02*
X8951310Y-11742976D01*
X8903690Y-11742976D01*
X8884643Y-11733452D01*
X8875119Y-11714405D01*
X8875119Y-11695357D01*
X8884643Y-11676309D01*
X8903690Y-11666786D01*
X8951310Y-11666786D01*
X8970357Y-11657262D01*
X9065595Y-11609643D02*
X9065595Y-11809643D01*
X9065595Y-11619167D02*
X9084643Y-11609643D01*
X9122738Y-11609643D01*
X9141786Y-11619167D01*
X9151310Y-11628690D01*
X9160833Y-11647738D01*
X9160833Y-11704881D01*
X9151310Y-11723928D01*
X9141786Y-11733452D01*
X9122738Y-11742976D01*
X9084643Y-11742976D01*
X9065595Y-11733452D01*
X9246548Y-11723928D02*
X9256071Y-11733452D01*
X9246548Y-11742976D01*
X9237024Y-11733452D01*
X9246548Y-11723928D01*
X9246548Y-11742976D01*
X9246548Y-11619167D02*
X9256071Y-11628690D01*
X9246548Y-11638214D01*
X9237024Y-11628690D01*
X9246548Y-11619167D01*
X9246548Y-11638214D01*
D10*
X7567500Y-12047500D02*
X7617500Y-12097500D01*
X7617500Y-12047500D02*
X7567500Y-12097500D01*
D11*
X7913214Y-11962976D02*
X7932262Y-11962976D01*
X7951309Y-11972500D01*
X7960833Y-11982024D01*
X7970357Y-12001071D01*
X7979881Y-12039167D01*
X7979881Y-12086786D01*
X7970357Y-12124881D01*
X7960833Y-12143928D01*
X7951309Y-12153452D01*
X7932262Y-12162976D01*
X7913214Y-12162976D01*
X7894167Y-12153452D01*
X7884643Y-12143928D01*
X7875119Y-12124881D01*
X7865595Y-12086786D01*
X7865595Y-12039167D01*
X7875119Y-12001071D01*
X7884643Y-11982024D01*
X7894167Y-11972500D01*
X7913214Y-11962976D01*
X8065595Y-12143928D02*
X8075119Y-12153452D01*
X8065595Y-12162976D01*
X8056071Y-12153452D01*
X8065595Y-12143928D01*
X8065595Y-12162976D01*
X8256071Y-11962976D02*
X8160833Y-11962976D01*
X8151309Y-12058214D01*
X8160833Y-12048690D01*
X8179881Y-12039167D01*
X8227500Y-12039167D01*
X8246548Y-12048690D01*
X8256071Y-12058214D01*
X8265595Y-12077262D01*
X8265595Y-12124881D01*
X8256071Y-12143928D01*
X8246548Y-12153452D01*
X8227500Y-12162976D01*
X8179881Y-12162976D01*
X8160833Y-12153452D01*
X8151309Y-12143928D01*
X8389405Y-11962976D02*
X8408452Y-11962976D01*
X8427500Y-11972500D01*
X8437024Y-11982024D01*
X8446548Y-12001071D01*
X8456071Y-12039167D01*
X8456071Y-12086786D01*
X8446548Y-12124881D01*
X8437024Y-12143928D01*
X8427500Y-12153452D01*
X8408452Y-12162976D01*
X8389405Y-12162976D01*
X8370357Y-12153452D01*
X8360833Y-12143928D01*
X8351309Y-12124881D01*
X8341786Y-12086786D01*
X8341786Y-12039167D01*
X8351309Y-12001071D01*
X8360833Y-11982024D01*
X8370357Y-11972500D01*
X8389405Y-11962976D01*
X8579881Y-11962976D02*
X8598929Y-11962976D01*
X8617976Y-11972500D01*
X8627500Y-11982024D01*
X8637024Y-12001071D01*
X8646548Y-12039167D01*
X8646548Y-12086786D01*
X8637024Y-12124881D01*
X8627500Y-12143928D01*
X8617976Y-12153452D01*
X8598929Y-12162976D01*
X8579881Y-12162976D01*
X8560833Y-12153452D01*
X8551310Y-12143928D01*
X8541786Y-12124881D01*
X8532262Y-12086786D01*
X8532262Y-12039167D01*
X8541786Y-12001071D01*
X8551310Y-11982024D01*
X8560833Y-11972500D01*
X8579881Y-11962976D01*
X8732262Y-12162976D02*
X8732262Y-12029643D01*
X8732262Y-12048690D02*
X8741786Y-12039167D01*
X8760833Y-12029643D01*
X8789405Y-12029643D01*
X8808452Y-12039167D01*
X8817976Y-12058214D01*
X8817976Y-12162976D01*
X8817976Y-12058214D02*
X8827500Y-12039167D01*
X8846548Y-12029643D01*
X8875119Y-12029643D01*
X8894167Y-12039167D01*
X8903690Y-12058214D01*
X8903690Y-12162976D01*
X8998929Y-12162976D02*
X8998929Y-12029643D01*
X8998929Y-12048690D02*
X9008452Y-12039167D01*
X9027500Y-12029643D01*
X9056071Y-12029643D01*
X9075119Y-12039167D01*
X9084643Y-12058214D01*
X9084643Y-12162976D01*
X9084643Y-12058214D02*
X9094167Y-12039167D01*
X9113214Y-12029643D01*
X9141786Y-12029643D01*
X9160833Y-12039167D01*
X9170357Y-12058214D01*
X9170357Y-12162976D01*
X9560833Y-11953452D02*
X9389405Y-12210595D01*
X9817976Y-11962976D02*
X9837024Y-11962976D01*
X9856071Y-11972500D01*
X9865595Y-11982024D01*
X9875119Y-12001071D01*
X9884643Y-12039167D01*
X9884643Y-12086786D01*
X9875119Y-12124881D01*
X9865595Y-12143928D01*
X9856071Y-12153452D01*
X9837024Y-12162976D01*
X9817976Y-12162976D01*
X9798929Y-12153452D01*
X9789405Y-12143928D01*
X9779881Y-12124881D01*
X9770357Y-12086786D01*
X9770357Y-12039167D01*
X9779881Y-12001071D01*
X9789405Y-11982024D01*
X9798929Y-11972500D01*
X9817976Y-11962976D01*
X9970357Y-12143928D02*
X9979881Y-12153452D01*
X9970357Y-12162976D01*
X9960833Y-12153452D01*
X9970357Y-12143928D01*
X9970357Y-12162976D01*
X10103690Y-11962976D02*
X10122738Y-11962976D01*
X10141786Y-11972500D01*
X10151310Y-11982024D01*
X10160833Y-12001071D01*
X10170357Y-12039167D01*
X10170357Y-12086786D01*
X10160833Y-12124881D01*
X10151310Y-12143928D01*
X10141786Y-12153452D01*
X10122738Y-12162976D01*
X10103690Y-12162976D01*
X10084643Y-12153452D01*
X10075119Y-12143928D01*
X10065595Y-12124881D01*
X10056071Y-12086786D01*
X10056071Y-12039167D01*
X10065595Y-12001071D01*
X10075119Y-11982024D01*
X10084643Y-11972500D01*
X10103690Y-11962976D01*
X10360833Y-12162976D02*
X10246548Y-12162976D01*
X10303690Y-12162976D02*
X10303690Y-11962976D01*
X10284643Y-11991548D01*
X10265595Y-12010595D01*
X10246548Y-12020119D01*
X10456071Y-12162976D02*
X10494167Y-12162976D01*
X10513214Y-12153452D01*
X10522738Y-12143928D01*
X10541786Y-12115357D01*
X10551310Y-12077262D01*
X10551310Y-12001071D01*
X10541786Y-11982024D01*
X10532262Y-11972500D01*
X10513214Y-11962976D01*
X10475119Y-11962976D01*
X10456071Y-11972500D01*
X10446548Y-11982024D01*
X10437024Y-12001071D01*
X10437024Y-12048690D01*
X10446548Y-12067738D01*
X10456071Y-12077262D01*
X10475119Y-12086786D01*
X10513214Y-12086786D01*
X10532262Y-12077262D01*
X10541786Y-12067738D01*
X10551310Y-12048690D01*
X10617976Y-11962976D02*
X10751310Y-11962976D01*
X10665595Y-12162976D01*
X10817976Y-11962976D02*
X10817976Y-12001071D01*
X10894167Y-11962976D02*
X10894167Y-12001071D01*
X11189405Y-12239167D02*
X11179881Y-12229643D01*
X11160833Y-12201071D01*
X11151310Y-12182024D01*
X11141786Y-12153452D01*
X11132262Y-12105833D01*
X11132262Y-12067738D01*
X11141786Y-12020119D01*
X11151310Y-11991548D01*
X11160833Y-11972500D01*
X11179881Y-11943928D01*
X11189405Y-11934405D01*
X11256071Y-11982024D02*
X11265595Y-11972500D01*
X11284643Y-11962976D01*
X11332262Y-11962976D01*
X11351309Y-11972500D01*
X11360833Y-11982024D01*
X11370357Y-12001071D01*
X11370357Y-12020119D01*
X11360833Y-12048690D01*
X11246548Y-12162976D01*
X11370357Y-12162976D01*
X11541786Y-12029643D02*
X11541786Y-12162976D01*
X11494167Y-11953452D02*
X11446548Y-12096309D01*
X11570357Y-12096309D01*
X11798928Y-12162976D02*
X11798928Y-11962976D01*
X11884643Y-12162976D02*
X11884643Y-12058214D01*
X11875119Y-12039167D01*
X11856071Y-12029643D01*
X11827500Y-12029643D01*
X11808452Y-12039167D01*
X11798928Y-12048690D01*
X12008452Y-12162976D02*
X11989405Y-12153452D01*
X11979881Y-12143928D01*
X11970357Y-12124881D01*
X11970357Y-12067738D01*
X11979881Y-12048690D01*
X11989405Y-12039167D01*
X12008452Y-12029643D01*
X12037024Y-12029643D01*
X12056071Y-12039167D01*
X12065595Y-12048690D01*
X12075119Y-12067738D01*
X12075119Y-12124881D01*
X12065595Y-12143928D01*
X12056071Y-12153452D01*
X12037024Y-12162976D01*
X12008452Y-12162976D01*
X12189405Y-12162976D02*
X12170357Y-12153452D01*
X12160833Y-12134405D01*
X12160833Y-11962976D01*
X12341786Y-12153452D02*
X12322738Y-12162976D01*
X12284643Y-12162976D01*
X12265595Y-12153452D01*
X12256071Y-12134405D01*
X12256071Y-12058214D01*
X12265595Y-12039167D01*
X12284643Y-12029643D01*
X12322738Y-12029643D01*
X12341786Y-12039167D01*
X12351309Y-12058214D01*
X12351309Y-12077262D01*
X12256071Y-12096309D01*
X12427500Y-12153452D02*
X12446548Y-12162976D01*
X12484643Y-12162976D01*
X12503690Y-12153452D01*
X12513214Y-12134405D01*
X12513214Y-12124881D01*
X12503690Y-12105833D01*
X12484643Y-12096309D01*
X12456071Y-12096309D01*
X12437024Y-12086786D01*
X12427500Y-12067738D01*
X12427500Y-12058214D01*
X12437024Y-12039167D01*
X12456071Y-12029643D01*
X12484643Y-12029643D01*
X12503690Y-12039167D01*
X12579881Y-12239167D02*
X12589405Y-12229643D01*
X12608452Y-12201071D01*
X12617976Y-12182024D01*
X12627500Y-12153452D01*
X12637024Y-12105833D01*
X12637024Y-12067738D01*
X12627500Y-12020119D01*
X12617976Y-11991548D01*
X12608452Y-11972500D01*
X12589405Y-11943928D01*
X12579881Y-11934405D01*
D12*
X7617500Y-12336500D02*
G75*
G03*
X7617500Y-12336500I-40000J0D01*
G01*
D11*
X7913214Y-12226976D02*
X7932262Y-12226976D01*
X7951309Y-12236500D01*
X7960833Y-12246024D01*
X7970357Y-12265071D01*
X7979881Y-12303167D01*
X7979881Y-12350786D01*
X7970357Y-12388881D01*
X7960833Y-12407928D01*
X7951309Y-12417452D01*
X7932262Y-12426976D01*
X7913214Y-12426976D01*
X7894167Y-12417452D01*
X7884643Y-12407928D01*
X7875119Y-12388881D01*
X7865595Y-12350786D01*
X7865595Y-12303167D01*
X7875119Y-12265071D01*
X7884643Y-12246024D01*
X7894167Y-12236500D01*
X7913214Y-12226976D01*
X8065595Y-12407928D02*
X8075119Y-12417452D01*
X8065595Y-12426976D01*
X8056071Y-12417452D01*
X8065595Y-12407928D01*
X8065595Y-12426976D01*
X8189405Y-12312690D02*
X8170357Y-12303167D01*
X8160833Y-12293643D01*
X8151309Y-12274595D01*
X8151309Y-12265071D01*
X8160833Y-12246024D01*
X8170357Y-12236500D01*
X8189405Y-12226976D01*
X8227500Y-12226976D01*
X8246548Y-12236500D01*
X8256071Y-12246024D01*
X8265595Y-12265071D01*
X8265595Y-12274595D01*
X8256071Y-12293643D01*
X8246548Y-12303167D01*
X8227500Y-12312690D01*
X8189405Y-12312690D01*
X8170357Y-12322214D01*
X8160833Y-12331738D01*
X8151309Y-12350786D01*
X8151309Y-12388881D01*
X8160833Y-12407928D01*
X8170357Y-12417452D01*
X8189405Y-12426976D01*
X8227500Y-12426976D01*
X8246548Y-12417452D01*
X8256071Y-12407928D01*
X8265595Y-12388881D01*
X8265595Y-12350786D01*
X8256071Y-12331738D01*
X8246548Y-12322214D01*
X8227500Y-12312690D01*
X8389405Y-12226976D02*
X8408452Y-12226976D01*
X8427500Y-12236500D01*
X8437024Y-12246024D01*
X8446548Y-12265071D01*
X8456071Y-12303167D01*
X8456071Y-12350786D01*
X8446548Y-12388881D01*
X8437024Y-12407928D01*
X8427500Y-12417452D01*
X8408452Y-12426976D01*
X8389405Y-12426976D01*
X8370357Y-12417452D01*
X8360833Y-12407928D01*
X8351309Y-12388881D01*
X8341786Y-12350786D01*
X8341786Y-12303167D01*
X8351309Y-12265071D01*
X8360833Y-12246024D01*
X8370357Y-12236500D01*
X8389405Y-12226976D01*
X8579881Y-12226976D02*
X8598929Y-12226976D01*
X8617976Y-12236500D01*
X8627500Y-12246024D01*
X8637024Y-12265071D01*
X8646548Y-12303167D01*
X8646548Y-12350786D01*
X8637024Y-12388881D01*
X8627500Y-12407928D01*
X8617976Y-12417452D01*
X8598929Y-12426976D01*
X8579881Y-12426976D01*
X8560833Y-12417452D01*
X8551310Y-12407928D01*
X8541786Y-12388881D01*
X8532262Y-12350786D01*
X8532262Y-12303167D01*
X8541786Y-12265071D01*
X8551310Y-12246024D01*
X8560833Y-12236500D01*
X8579881Y-12226976D01*
X8732262Y-12426976D02*
X8732262Y-12293643D01*
X8732262Y-12312690D02*
X8741786Y-12303167D01*
X8760833Y-12293643D01*
X8789405Y-12293643D01*
X8808452Y-12303167D01*
X8817976Y-12322214D01*
X8817976Y-12426976D01*
X8817976Y-12322214D02*
X8827500Y-12303167D01*
X8846548Y-12293643D01*
X8875119Y-12293643D01*
X8894167Y-12303167D01*
X8903690Y-12322214D01*
X8903690Y-12426976D01*
X8998929Y-12426976D02*
X8998929Y-12293643D01*
X8998929Y-12312690D02*
X9008452Y-12303167D01*
X9027500Y-12293643D01*
X9056071Y-12293643D01*
X9075119Y-12303167D01*
X9084643Y-12322214D01*
X9084643Y-12426976D01*
X9084643Y-12322214D02*
X9094167Y-12303167D01*
X9113214Y-12293643D01*
X9141786Y-12293643D01*
X9160833Y-12303167D01*
X9170357Y-12322214D01*
X9170357Y-12426976D01*
X9560833Y-12217452D02*
X9389405Y-12474595D01*
X9817976Y-12226976D02*
X9837024Y-12226976D01*
X9856071Y-12236500D01*
X9865595Y-12246024D01*
X9875119Y-12265071D01*
X9884643Y-12303167D01*
X9884643Y-12350786D01*
X9875119Y-12388881D01*
X9865595Y-12407928D01*
X9856071Y-12417452D01*
X9837024Y-12426976D01*
X9817976Y-12426976D01*
X9798929Y-12417452D01*
X9789405Y-12407928D01*
X9779881Y-12388881D01*
X9770357Y-12350786D01*
X9770357Y-12303167D01*
X9779881Y-12265071D01*
X9789405Y-12246024D01*
X9798929Y-12236500D01*
X9817976Y-12226976D01*
X9970357Y-12407928D02*
X9979881Y-12417452D01*
X9970357Y-12426976D01*
X9960833Y-12417452D01*
X9970357Y-12407928D01*
X9970357Y-12426976D01*
X10103690Y-12226976D02*
X10122738Y-12226976D01*
X10141786Y-12236500D01*
X10151310Y-12246024D01*
X10160833Y-12265071D01*
X10170357Y-12303167D01*
X10170357Y-12350786D01*
X10160833Y-12388881D01*
X10151310Y-12407928D01*
X10141786Y-12417452D01*
X10122738Y-12426976D01*
X10103690Y-12426976D01*
X10084643Y-12417452D01*
X10075119Y-12407928D01*
X10065595Y-12388881D01*
X10056071Y-12350786D01*
X10056071Y-12303167D01*
X10065595Y-12265071D01*
X10075119Y-12246024D01*
X10084643Y-12236500D01*
X10103690Y-12226976D01*
X10237024Y-12226976D02*
X10360833Y-12226976D01*
X10294167Y-12303167D01*
X10322738Y-12303167D01*
X10341786Y-12312690D01*
X10351310Y-12322214D01*
X10360833Y-12341262D01*
X10360833Y-12388881D01*
X10351310Y-12407928D01*
X10341786Y-12417452D01*
X10322738Y-12426976D01*
X10265595Y-12426976D01*
X10246548Y-12417452D01*
X10237024Y-12407928D01*
X10551310Y-12426976D02*
X10437024Y-12426976D01*
X10494167Y-12426976D02*
X10494167Y-12226976D01*
X10475119Y-12255548D01*
X10456071Y-12274595D01*
X10437024Y-12284119D01*
X10732262Y-12226976D02*
X10637024Y-12226976D01*
X10627500Y-12322214D01*
X10637024Y-12312690D01*
X10656071Y-12303167D01*
X10703690Y-12303167D01*
X10722738Y-12312690D01*
X10732262Y-12322214D01*
X10741786Y-12341262D01*
X10741786Y-12388881D01*
X10732262Y-12407928D01*
X10722738Y-12417452D01*
X10703690Y-12426976D01*
X10656071Y-12426976D01*
X10637024Y-12417452D01*
X10627500Y-12407928D01*
X10817976Y-12226976D02*
X10817976Y-12265071D01*
X10894167Y-12226976D02*
X10894167Y-12265071D01*
X11189405Y-12503167D02*
X11179881Y-12493643D01*
X11160833Y-12465071D01*
X11151310Y-12446024D01*
X11141786Y-12417452D01*
X11132262Y-12369833D01*
X11132262Y-12331738D01*
X11141786Y-12284119D01*
X11151310Y-12255548D01*
X11160833Y-12236500D01*
X11179881Y-12207928D01*
X11189405Y-12198405D01*
X11294167Y-12312690D02*
X11275119Y-12303167D01*
X11265595Y-12293643D01*
X11256071Y-12274595D01*
X11256071Y-12265071D01*
X11265595Y-12246024D01*
X11275119Y-12236500D01*
X11294167Y-12226976D01*
X11332262Y-12226976D01*
X11351309Y-12236500D01*
X11360833Y-12246024D01*
X11370357Y-12265071D01*
X11370357Y-12274595D01*
X11360833Y-12293643D01*
X11351309Y-12303167D01*
X11332262Y-12312690D01*
X11294167Y-12312690D01*
X11275119Y-12322214D01*
X11265595Y-12331738D01*
X11256071Y-12350786D01*
X11256071Y-12388881D01*
X11265595Y-12407928D01*
X11275119Y-12417452D01*
X11294167Y-12426976D01*
X11332262Y-12426976D01*
X11351309Y-12417452D01*
X11360833Y-12407928D01*
X11370357Y-12388881D01*
X11370357Y-12350786D01*
X11360833Y-12331738D01*
X11351309Y-12322214D01*
X11332262Y-12312690D01*
X11560833Y-12426976D02*
X11446548Y-12426976D01*
X11503690Y-12426976D02*
X11503690Y-12226976D01*
X11484643Y-12255548D01*
X11465595Y-12274595D01*
X11446548Y-12284119D01*
X11798928Y-12426976D02*
X11798928Y-12226976D01*
X11884643Y-12426976D02*
X11884643Y-12322214D01*
X11875119Y-12303167D01*
X11856071Y-12293643D01*
X11827500Y-12293643D01*
X11808452Y-12303167D01*
X11798928Y-12312690D01*
X12008452Y-12426976D02*
X11989405Y-12417452D01*
X11979881Y-12407928D01*
X11970357Y-12388881D01*
X11970357Y-12331738D01*
X11979881Y-12312690D01*
X11989405Y-12303167D01*
X12008452Y-12293643D01*
X12037024Y-12293643D01*
X12056071Y-12303167D01*
X12065595Y-12312690D01*
X12075119Y-12331738D01*
X12075119Y-12388881D01*
X12065595Y-12407928D01*
X12056071Y-12417452D01*
X12037024Y-12426976D01*
X12008452Y-12426976D01*
X12189405Y-12426976D02*
X12170357Y-12417452D01*
X12160833Y-12398405D01*
X12160833Y-12226976D01*
X12341786Y-12417452D02*
X12322738Y-12426976D01*
X12284643Y-12426976D01*
X12265595Y-12417452D01*
X12256071Y-12398405D01*
X12256071Y-12322214D01*
X12265595Y-12303167D01*
X12284643Y-12293643D01*
X12322738Y-12293643D01*
X12341786Y-12303167D01*
X12351309Y-12322214D01*
X12351309Y-12341262D01*
X12256071Y-12360309D01*
X12427500Y-12417452D02*
X12446548Y-12426976D01*
X12484643Y-12426976D01*
X12503690Y-12417452D01*
X12513214Y-12398405D01*
X12513214Y-12388881D01*
X12503690Y-12369833D01*
X12484643Y-12360309D01*
X12456071Y-12360309D01*
X12437024Y-12350786D01*
X12427500Y-12331738D01*
X12427500Y-12322214D01*
X12437024Y-12303167D01*
X12456071Y-12293643D01*
X12484643Y-12293643D01*
X12503690Y-12303167D01*
X12579881Y-12503167D02*
X12589405Y-12493643D01*
X12608452Y-12465071D01*
X12617976Y-12446024D01*
X12627500Y-12417452D01*
X12637024Y-12369833D01*
X12637024Y-12331738D01*
X12627500Y-12284119D01*
X12617976Y-12255548D01*
X12608452Y-12236500D01*
X12589405Y-12207928D01*
X12579881Y-12198405D01*
D13*
X7567500Y-12550500D02*
X7567500Y-12650500D01*
X7517500Y-12600500D02*
X7617500Y-12600500D01*
D11*
X7979881Y-12690976D02*
X7865595Y-12690976D01*
X7922738Y-12690976D02*
X7922738Y-12490976D01*
X7903690Y-12519548D01*
X7884643Y-12538595D01*
X7865595Y-12548119D01*
X8065595Y-12671928D02*
X8075119Y-12681452D01*
X8065595Y-12690976D01*
X8056071Y-12681452D01*
X8065595Y-12671928D01*
X8065595Y-12690976D01*
X8198928Y-12490976D02*
X8217976Y-12490976D01*
X8237024Y-12500500D01*
X8246548Y-12510024D01*
X8256071Y-12529071D01*
X8265595Y-12567167D01*
X8265595Y-12614786D01*
X8256071Y-12652881D01*
X8246548Y-12671928D01*
X8237024Y-12681452D01*
X8217976Y-12690976D01*
X8198928Y-12690976D01*
X8179881Y-12681452D01*
X8170357Y-12671928D01*
X8160833Y-12652881D01*
X8151309Y-12614786D01*
X8151309Y-12567167D01*
X8160833Y-12529071D01*
X8170357Y-12510024D01*
X8179881Y-12500500D01*
X8198928Y-12490976D01*
X8389405Y-12490976D02*
X8408452Y-12490976D01*
X8427500Y-12500500D01*
X8437024Y-12510024D01*
X8446548Y-12529071D01*
X8456071Y-12567167D01*
X8456071Y-12614786D01*
X8446548Y-12652881D01*
X8437024Y-12671928D01*
X8427500Y-12681452D01*
X8408452Y-12690976D01*
X8389405Y-12690976D01*
X8370357Y-12681452D01*
X8360833Y-12671928D01*
X8351309Y-12652881D01*
X8341786Y-12614786D01*
X8341786Y-12567167D01*
X8351309Y-12529071D01*
X8360833Y-12510024D01*
X8370357Y-12500500D01*
X8389405Y-12490976D01*
X8579881Y-12490976D02*
X8598929Y-12490976D01*
X8617976Y-12500500D01*
X8627500Y-12510024D01*
X8637024Y-12529071D01*
X8646548Y-12567167D01*
X8646548Y-12614786D01*
X8637024Y-12652881D01*
X8627500Y-12671928D01*
X8617976Y-12681452D01*
X8598929Y-12690976D01*
X8579881Y-12690976D01*
X8560833Y-12681452D01*
X8551310Y-12671928D01*
X8541786Y-12652881D01*
X8532262Y-12614786D01*
X8532262Y-12567167D01*
X8541786Y-12529071D01*
X8551310Y-12510024D01*
X8560833Y-12500500D01*
X8579881Y-12490976D01*
X8732262Y-12690976D02*
X8732262Y-12557643D01*
X8732262Y-12576690D02*
X8741786Y-12567167D01*
X8760833Y-12557643D01*
X8789405Y-12557643D01*
X8808452Y-12567167D01*
X8817976Y-12586214D01*
X8817976Y-12690976D01*
X8817976Y-12586214D02*
X8827500Y-12567167D01*
X8846548Y-12557643D01*
X8875119Y-12557643D01*
X8894167Y-12567167D01*
X8903690Y-12586214D01*
X8903690Y-12690976D01*
X8998929Y-12690976D02*
X8998929Y-12557643D01*
X8998929Y-12576690D02*
X9008452Y-12567167D01*
X9027500Y-12557643D01*
X9056071Y-12557643D01*
X9075119Y-12567167D01*
X9084643Y-12586214D01*
X9084643Y-12690976D01*
X9084643Y-12586214D02*
X9094167Y-12567167D01*
X9113214Y-12557643D01*
X9141786Y-12557643D01*
X9160833Y-12567167D01*
X9170357Y-12586214D01*
X9170357Y-12690976D01*
X9560833Y-12481452D02*
X9389405Y-12738595D01*
X9817976Y-12490976D02*
X9837024Y-12490976D01*
X9856071Y-12500500D01*
X9865595Y-12510024D01*
X9875119Y-12529071D01*
X9884643Y-12567167D01*
X9884643Y-12614786D01*
X9875119Y-12652881D01*
X9865595Y-12671928D01*
X9856071Y-12681452D01*
X9837024Y-12690976D01*
X9817976Y-12690976D01*
X9798929Y-12681452D01*
X9789405Y-12671928D01*
X9779881Y-12652881D01*
X9770357Y-12614786D01*
X9770357Y-12567167D01*
X9779881Y-12529071D01*
X9789405Y-12510024D01*
X9798929Y-12500500D01*
X9817976Y-12490976D01*
X9970357Y-12671928D02*
X9979881Y-12681452D01*
X9970357Y-12690976D01*
X9960833Y-12681452D01*
X9970357Y-12671928D01*
X9970357Y-12690976D01*
X10103690Y-12490976D02*
X10122738Y-12490976D01*
X10141786Y-12500500D01*
X10151310Y-12510024D01*
X10160833Y-12529071D01*
X10170357Y-12567167D01*
X10170357Y-12614786D01*
X10160833Y-12652881D01*
X10151310Y-12671928D01*
X10141786Y-12681452D01*
X10122738Y-12690976D01*
X10103690Y-12690976D01*
X10084643Y-12681452D01*
X10075119Y-12671928D01*
X10065595Y-12652881D01*
X10056071Y-12614786D01*
X10056071Y-12567167D01*
X10065595Y-12529071D01*
X10075119Y-12510024D01*
X10084643Y-12500500D01*
X10103690Y-12490976D01*
X10237024Y-12490976D02*
X10360833Y-12490976D01*
X10294167Y-12567167D01*
X10322738Y-12567167D01*
X10341786Y-12576690D01*
X10351310Y-12586214D01*
X10360833Y-12605262D01*
X10360833Y-12652881D01*
X10351310Y-12671928D01*
X10341786Y-12681452D01*
X10322738Y-12690976D01*
X10265595Y-12690976D01*
X10246548Y-12681452D01*
X10237024Y-12671928D01*
X10456071Y-12690976D02*
X10494167Y-12690976D01*
X10513214Y-12681452D01*
X10522738Y-12671928D01*
X10541786Y-12643357D01*
X10551310Y-12605262D01*
X10551310Y-12529071D01*
X10541786Y-12510024D01*
X10532262Y-12500500D01*
X10513214Y-12490976D01*
X10475119Y-12490976D01*
X10456071Y-12500500D01*
X10446548Y-12510024D01*
X10437024Y-12529071D01*
X10437024Y-12576690D01*
X10446548Y-12595738D01*
X10456071Y-12605262D01*
X10475119Y-12614786D01*
X10513214Y-12614786D01*
X10532262Y-12605262D01*
X10541786Y-12595738D01*
X10551310Y-12576690D01*
X10722738Y-12557643D02*
X10722738Y-12690976D01*
X10675119Y-12481452D02*
X10627500Y-12624309D01*
X10751310Y-12624309D01*
X10817976Y-12490976D02*
X10817976Y-12529071D01*
X10894167Y-12490976D02*
X10894167Y-12529071D01*
X11189405Y-12767167D02*
X11179881Y-12757643D01*
X11160833Y-12729071D01*
X11151310Y-12710024D01*
X11141786Y-12681452D01*
X11132262Y-12633833D01*
X11132262Y-12595738D01*
X11141786Y-12548119D01*
X11151310Y-12519548D01*
X11160833Y-12500500D01*
X11179881Y-12471928D01*
X11189405Y-12462405D01*
X11294167Y-12576690D02*
X11275119Y-12567167D01*
X11265595Y-12557643D01*
X11256071Y-12538595D01*
X11256071Y-12529071D01*
X11265595Y-12510024D01*
X11275119Y-12500500D01*
X11294167Y-12490976D01*
X11332262Y-12490976D01*
X11351309Y-12500500D01*
X11360833Y-12510024D01*
X11370357Y-12529071D01*
X11370357Y-12538595D01*
X11360833Y-12557643D01*
X11351309Y-12567167D01*
X11332262Y-12576690D01*
X11294167Y-12576690D01*
X11275119Y-12586214D01*
X11265595Y-12595738D01*
X11256071Y-12614786D01*
X11256071Y-12652881D01*
X11265595Y-12671928D01*
X11275119Y-12681452D01*
X11294167Y-12690976D01*
X11332262Y-12690976D01*
X11351309Y-12681452D01*
X11360833Y-12671928D01*
X11370357Y-12652881D01*
X11370357Y-12614786D01*
X11360833Y-12595738D01*
X11351309Y-12586214D01*
X11332262Y-12576690D01*
X11494167Y-12490976D02*
X11513214Y-12490976D01*
X11532262Y-12500500D01*
X11541786Y-12510024D01*
X11551309Y-12529071D01*
X11560833Y-12567167D01*
X11560833Y-12614786D01*
X11551309Y-12652881D01*
X11541786Y-12671928D01*
X11532262Y-12681452D01*
X11513214Y-12690976D01*
X11494167Y-12690976D01*
X11475119Y-12681452D01*
X11465595Y-12671928D01*
X11456071Y-12652881D01*
X11446548Y-12614786D01*
X11446548Y-12567167D01*
X11456071Y-12529071D01*
X11465595Y-12510024D01*
X11475119Y-12500500D01*
X11494167Y-12490976D01*
X11798928Y-12690976D02*
X11798928Y-12490976D01*
X11884643Y-12690976D02*
X11884643Y-12586214D01*
X11875119Y-12567167D01*
X11856071Y-12557643D01*
X11827500Y-12557643D01*
X11808452Y-12567167D01*
X11798928Y-12576690D01*
X12008452Y-12690976D02*
X11989405Y-12681452D01*
X11979881Y-12671928D01*
X11970357Y-12652881D01*
X11970357Y-12595738D01*
X11979881Y-12576690D01*
X11989405Y-12567167D01*
X12008452Y-12557643D01*
X12037024Y-12557643D01*
X12056071Y-12567167D01*
X12065595Y-12576690D01*
X12075119Y-12595738D01*
X12075119Y-12652881D01*
X12065595Y-12671928D01*
X12056071Y-12681452D01*
X12037024Y-12690976D01*
X12008452Y-12690976D01*
X12189405Y-12690976D02*
X12170357Y-12681452D01*
X12160833Y-12662405D01*
X12160833Y-12490976D01*
X12341786Y-12681452D02*
X12322738Y-12690976D01*
X12284643Y-12690976D01*
X12265595Y-12681452D01*
X12256071Y-12662405D01*
X12256071Y-12586214D01*
X12265595Y-12567167D01*
X12284643Y-12557643D01*
X12322738Y-12557643D01*
X12341786Y-12567167D01*
X12351309Y-12586214D01*
X12351309Y-12605262D01*
X12256071Y-12624309D01*
X12427500Y-12681452D02*
X12446548Y-12690976D01*
X12484643Y-12690976D01*
X12503690Y-12681452D01*
X12513214Y-12662405D01*
X12513214Y-12652881D01*
X12503690Y-12633833D01*
X12484643Y-12624309D01*
X12456071Y-12624309D01*
X12437024Y-12614786D01*
X12427500Y-12595738D01*
X12427500Y-12586214D01*
X12437024Y-12567167D01*
X12456071Y-12557643D01*
X12484643Y-12557643D01*
X12503690Y-12567167D01*
X12579881Y-12767167D02*
X12589405Y-12757643D01*
X12608452Y-12729071D01*
X12617976Y-12710024D01*
X12627500Y-12681452D01*
X12637024Y-12633833D01*
X12637024Y-12595738D01*
X12627500Y-12548119D01*
X12617976Y-12519548D01*
X12608452Y-12500500D01*
X12589405Y-12471928D01*
X12579881Y-12462405D01*
D14*
X7601391Y-12903391D02*
X7601391Y-12825609D01*
X7523609Y-12825609D01*
X7523609Y-12903391D01*
X7601391Y-12903391D01*
D11*
X7979881Y-12954976D02*
X7865595Y-12954976D01*
X7922738Y-12954976D02*
X7922738Y-12754976D01*
X7903690Y-12783548D01*
X7884643Y-12802595D01*
X7865595Y-12812119D01*
X8065595Y-12935928D02*
X8075119Y-12945452D01*
X8065595Y-12954976D01*
X8056071Y-12945452D01*
X8065595Y-12935928D01*
X8065595Y-12954976D01*
X8265595Y-12954976D02*
X8151309Y-12954976D01*
X8208452Y-12954976D02*
X8208452Y-12754976D01*
X8189405Y-12783548D01*
X8170357Y-12802595D01*
X8151309Y-12812119D01*
X8389405Y-12754976D02*
X8408452Y-12754976D01*
X8427500Y-12764500D01*
X8437024Y-12774024D01*
X8446548Y-12793071D01*
X8456071Y-12831167D01*
X8456071Y-12878786D01*
X8446548Y-12916881D01*
X8437024Y-12935928D01*
X8427500Y-12945452D01*
X8408452Y-12954976D01*
X8389405Y-12954976D01*
X8370357Y-12945452D01*
X8360833Y-12935928D01*
X8351309Y-12916881D01*
X8341786Y-12878786D01*
X8341786Y-12831167D01*
X8351309Y-12793071D01*
X8360833Y-12774024D01*
X8370357Y-12764500D01*
X8389405Y-12754976D01*
X8579881Y-12754976D02*
X8598929Y-12754976D01*
X8617976Y-12764500D01*
X8627500Y-12774024D01*
X8637024Y-12793071D01*
X8646548Y-12831167D01*
X8646548Y-12878786D01*
X8637024Y-12916881D01*
X8627500Y-12935928D01*
X8617976Y-12945452D01*
X8598929Y-12954976D01*
X8579881Y-12954976D01*
X8560833Y-12945452D01*
X8551310Y-12935928D01*
X8541786Y-12916881D01*
X8532262Y-12878786D01*
X8532262Y-12831167D01*
X8541786Y-12793071D01*
X8551310Y-12774024D01*
X8560833Y-12764500D01*
X8579881Y-12754976D01*
X8732262Y-12954976D02*
X8732262Y-12821643D01*
X8732262Y-12840690D02*
X8741786Y-12831167D01*
X8760833Y-12821643D01*
X8789405Y-12821643D01*
X8808452Y-12831167D01*
X8817976Y-12850214D01*
X8817976Y-12954976D01*
X8817976Y-12850214D02*
X8827500Y-12831167D01*
X8846548Y-12821643D01*
X8875119Y-12821643D01*
X8894167Y-12831167D01*
X8903690Y-12850214D01*
X8903690Y-12954976D01*
X8998929Y-12954976D02*
X8998929Y-12821643D01*
X8998929Y-12840690D02*
X9008452Y-12831167D01*
X9027500Y-12821643D01*
X9056071Y-12821643D01*
X9075119Y-12831167D01*
X9084643Y-12850214D01*
X9084643Y-12954976D01*
X9084643Y-12850214D02*
X9094167Y-12831167D01*
X9113214Y-12821643D01*
X9141786Y-12821643D01*
X9160833Y-12831167D01*
X9170357Y-12850214D01*
X9170357Y-12954976D01*
X9560833Y-12745452D02*
X9389405Y-13002595D01*
X9817976Y-12754976D02*
X9837024Y-12754976D01*
X9856071Y-12764500D01*
X9865595Y-12774024D01*
X9875119Y-12793071D01*
X9884643Y-12831167D01*
X9884643Y-12878786D01*
X9875119Y-12916881D01*
X9865595Y-12935928D01*
X9856071Y-12945452D01*
X9837024Y-12954976D01*
X9817976Y-12954976D01*
X9798929Y-12945452D01*
X9789405Y-12935928D01*
X9779881Y-12916881D01*
X9770357Y-12878786D01*
X9770357Y-12831167D01*
X9779881Y-12793071D01*
X9789405Y-12774024D01*
X9798929Y-12764500D01*
X9817976Y-12754976D01*
X9970357Y-12935928D02*
X9979881Y-12945452D01*
X9970357Y-12954976D01*
X9960833Y-12945452D01*
X9970357Y-12935928D01*
X9970357Y-12954976D01*
X10103690Y-12754976D02*
X10122738Y-12754976D01*
X10141786Y-12764500D01*
X10151310Y-12774024D01*
X10160833Y-12793071D01*
X10170357Y-12831167D01*
X10170357Y-12878786D01*
X10160833Y-12916881D01*
X10151310Y-12935928D01*
X10141786Y-12945452D01*
X10122738Y-12954976D01*
X10103690Y-12954976D01*
X10084643Y-12945452D01*
X10075119Y-12935928D01*
X10065595Y-12916881D01*
X10056071Y-12878786D01*
X10056071Y-12831167D01*
X10065595Y-12793071D01*
X10075119Y-12774024D01*
X10084643Y-12764500D01*
X10103690Y-12754976D01*
X10341786Y-12821643D02*
X10341786Y-12954976D01*
X10294167Y-12745452D02*
X10246548Y-12888309D01*
X10370357Y-12888309D01*
X10427500Y-12754976D02*
X10551310Y-12754976D01*
X10484643Y-12831167D01*
X10513214Y-12831167D01*
X10532262Y-12840690D01*
X10541786Y-12850214D01*
X10551310Y-12869262D01*
X10551310Y-12916881D01*
X10541786Y-12935928D01*
X10532262Y-12945452D01*
X10513214Y-12954976D01*
X10456071Y-12954976D01*
X10437024Y-12945452D01*
X10427500Y-12935928D01*
X10617976Y-12754976D02*
X10741786Y-12754976D01*
X10675119Y-12831167D01*
X10703690Y-12831167D01*
X10722738Y-12840690D01*
X10732262Y-12850214D01*
X10741786Y-12869262D01*
X10741786Y-12916881D01*
X10732262Y-12935928D01*
X10722738Y-12945452D01*
X10703690Y-12954976D01*
X10646548Y-12954976D01*
X10627500Y-12945452D01*
X10617976Y-12935928D01*
X10817976Y-12754976D02*
X10817976Y-12793071D01*
X10894167Y-12754976D02*
X10894167Y-12793071D01*
X11189405Y-13031167D02*
X11179881Y-13021643D01*
X11160833Y-12993071D01*
X11151310Y-12974024D01*
X11141786Y-12945452D01*
X11132262Y-12897833D01*
X11132262Y-12859738D01*
X11141786Y-12812119D01*
X11151310Y-12783548D01*
X11160833Y-12764500D01*
X11179881Y-12735928D01*
X11189405Y-12726405D01*
X11246548Y-12754976D02*
X11370357Y-12754976D01*
X11303690Y-12831167D01*
X11332262Y-12831167D01*
X11351309Y-12840690D01*
X11360833Y-12850214D01*
X11370357Y-12869262D01*
X11370357Y-12916881D01*
X11360833Y-12935928D01*
X11351309Y-12945452D01*
X11332262Y-12954976D01*
X11275119Y-12954976D01*
X11256071Y-12945452D01*
X11246548Y-12935928D01*
X11608452Y-12954976D02*
X11608452Y-12754976D01*
X11694167Y-12954976D02*
X11694167Y-12850214D01*
X11684643Y-12831167D01*
X11665595Y-12821643D01*
X11637024Y-12821643D01*
X11617976Y-12831167D01*
X11608452Y-12840690D01*
X11817976Y-12954976D02*
X11798928Y-12945452D01*
X11789405Y-12935928D01*
X11779881Y-12916881D01*
X11779881Y-12859738D01*
X11789405Y-12840690D01*
X11798928Y-12831167D01*
X11817976Y-12821643D01*
X11846548Y-12821643D01*
X11865595Y-12831167D01*
X11875119Y-12840690D01*
X11884643Y-12859738D01*
X11884643Y-12916881D01*
X11875119Y-12935928D01*
X11865595Y-12945452D01*
X11846548Y-12954976D01*
X11817976Y-12954976D01*
X11998928Y-12954976D02*
X11979881Y-12945452D01*
X11970357Y-12926405D01*
X11970357Y-12754976D01*
X12151309Y-12945452D02*
X12132262Y-12954976D01*
X12094167Y-12954976D01*
X12075119Y-12945452D01*
X12065595Y-12926405D01*
X12065595Y-12850214D01*
X12075119Y-12831167D01*
X12094167Y-12821643D01*
X12132262Y-12821643D01*
X12151309Y-12831167D01*
X12160833Y-12850214D01*
X12160833Y-12869262D01*
X12065595Y-12888309D01*
X12237024Y-12945452D02*
X12256071Y-12954976D01*
X12294167Y-12954976D01*
X12313214Y-12945452D01*
X12322738Y-12926405D01*
X12322738Y-12916881D01*
X12313214Y-12897833D01*
X12294167Y-12888309D01*
X12265595Y-12888309D01*
X12246548Y-12878786D01*
X12237024Y-12859738D01*
X12237024Y-12850214D01*
X12246548Y-12831167D01*
X12265595Y-12821643D01*
X12294167Y-12821643D01*
X12313214Y-12831167D01*
X12389405Y-13031167D02*
X12398928Y-13021643D01*
X12417976Y-12993071D01*
X12427500Y-12974024D01*
X12437024Y-12945452D01*
X12446548Y-12897833D01*
X12446548Y-12859738D01*
X12437024Y-12812119D01*
X12427500Y-12783548D01*
X12417976Y-12764500D01*
X12398928Y-12735928D01*
X12389405Y-12726405D01*
D15*
X7557500Y-13188500D02*
X7617500Y-13128500D01*
X7557500Y-13068500D01*
X7497500Y-13128500D01*
X7557500Y-13188500D01*
D11*
X7979881Y-13218976D02*
X7865595Y-13218976D01*
X7922738Y-13218976D02*
X7922738Y-13018976D01*
X7903690Y-13047548D01*
X7884643Y-13066595D01*
X7865595Y-13076119D01*
X8065595Y-13199928D02*
X8075119Y-13209452D01*
X8065595Y-13218976D01*
X8056071Y-13209452D01*
X8065595Y-13199928D01*
X8065595Y-13218976D01*
X8151309Y-13038024D02*
X8160833Y-13028500D01*
X8179881Y-13018976D01*
X8227500Y-13018976D01*
X8246548Y-13028500D01*
X8256071Y-13038024D01*
X8265595Y-13057071D01*
X8265595Y-13076119D01*
X8256071Y-13104690D01*
X8141786Y-13218976D01*
X8265595Y-13218976D01*
X8389405Y-13018976D02*
X8408452Y-13018976D01*
X8427500Y-13028500D01*
X8437024Y-13038024D01*
X8446548Y-13057071D01*
X8456071Y-13095167D01*
X8456071Y-13142786D01*
X8446548Y-13180881D01*
X8437024Y-13199928D01*
X8427500Y-13209452D01*
X8408452Y-13218976D01*
X8389405Y-13218976D01*
X8370357Y-13209452D01*
X8360833Y-13199928D01*
X8351309Y-13180881D01*
X8341786Y-13142786D01*
X8341786Y-13095167D01*
X8351309Y-13057071D01*
X8360833Y-13038024D01*
X8370357Y-13028500D01*
X8389405Y-13018976D01*
X8579881Y-13018976D02*
X8598929Y-13018976D01*
X8617976Y-13028500D01*
X8627500Y-13038024D01*
X8637024Y-13057071D01*
X8646548Y-13095167D01*
X8646548Y-13142786D01*
X8637024Y-13180881D01*
X8627500Y-13199928D01*
X8617976Y-13209452D01*
X8598929Y-13218976D01*
X8579881Y-13218976D01*
X8560833Y-13209452D01*
X8551310Y-13199928D01*
X8541786Y-13180881D01*
X8532262Y-13142786D01*
X8532262Y-13095167D01*
X8541786Y-13057071D01*
X8551310Y-13038024D01*
X8560833Y-13028500D01*
X8579881Y-13018976D01*
X8732262Y-13218976D02*
X8732262Y-13085643D01*
X8732262Y-13104690D02*
X8741786Y-13095167D01*
X8760833Y-13085643D01*
X8789405Y-13085643D01*
X8808452Y-13095167D01*
X8817976Y-13114214D01*
X8817976Y-13218976D01*
X8817976Y-13114214D02*
X8827500Y-13095167D01*
X8846548Y-13085643D01*
X8875119Y-13085643D01*
X8894167Y-13095167D01*
X8903690Y-13114214D01*
X8903690Y-13218976D01*
X8998929Y-13218976D02*
X8998929Y-13085643D01*
X8998929Y-13104690D02*
X9008452Y-13095167D01*
X9027500Y-13085643D01*
X9056071Y-13085643D01*
X9075119Y-13095167D01*
X9084643Y-13114214D01*
X9084643Y-13218976D01*
X9084643Y-13114214D02*
X9094167Y-13095167D01*
X9113214Y-13085643D01*
X9141786Y-13085643D01*
X9160833Y-13095167D01*
X9170357Y-13114214D01*
X9170357Y-13218976D01*
X9560833Y-13009452D02*
X9389405Y-13266595D01*
X9817976Y-13018976D02*
X9837024Y-13018976D01*
X9856071Y-13028500D01*
X9865595Y-13038024D01*
X9875119Y-13057071D01*
X9884643Y-13095167D01*
X9884643Y-13142786D01*
X9875119Y-13180881D01*
X9865595Y-13199928D01*
X9856071Y-13209452D01*
X9837024Y-13218976D01*
X9817976Y-13218976D01*
X9798929Y-13209452D01*
X9789405Y-13199928D01*
X9779881Y-13180881D01*
X9770357Y-13142786D01*
X9770357Y-13095167D01*
X9779881Y-13057071D01*
X9789405Y-13038024D01*
X9798929Y-13028500D01*
X9817976Y-13018976D01*
X9970357Y-13199928D02*
X9979881Y-13209452D01*
X9970357Y-13218976D01*
X9960833Y-13209452D01*
X9970357Y-13199928D01*
X9970357Y-13218976D01*
X10103690Y-13018976D02*
X10122738Y-13018976D01*
X10141786Y-13028500D01*
X10151310Y-13038024D01*
X10160833Y-13057071D01*
X10170357Y-13095167D01*
X10170357Y-13142786D01*
X10160833Y-13180881D01*
X10151310Y-13199928D01*
X10141786Y-13209452D01*
X10122738Y-13218976D01*
X10103690Y-13218976D01*
X10084643Y-13209452D01*
X10075119Y-13199928D01*
X10065595Y-13180881D01*
X10056071Y-13142786D01*
X10056071Y-13095167D01*
X10065595Y-13057071D01*
X10075119Y-13038024D01*
X10084643Y-13028500D01*
X10103690Y-13018976D01*
X10341786Y-13085643D02*
X10341786Y-13218976D01*
X10294167Y-13009452D02*
X10246548Y-13152309D01*
X10370357Y-13152309D01*
X10427500Y-13018976D02*
X10560833Y-13018976D01*
X10475119Y-13218976D01*
X10627500Y-13038024D02*
X10637024Y-13028500D01*
X10656071Y-13018976D01*
X10703690Y-13018976D01*
X10722738Y-13028500D01*
X10732262Y-13038024D01*
X10741786Y-13057071D01*
X10741786Y-13076119D01*
X10732262Y-13104690D01*
X10617976Y-13218976D01*
X10741786Y-13218976D01*
X10817976Y-13018976D02*
X10817976Y-13057071D01*
X10894167Y-13018976D02*
X10894167Y-13057071D01*
X11189405Y-13295167D02*
X11179881Y-13285643D01*
X11160833Y-13257071D01*
X11151310Y-13238024D01*
X11141786Y-13209452D01*
X11132262Y-13161833D01*
X11132262Y-13123738D01*
X11141786Y-13076119D01*
X11151310Y-13047548D01*
X11160833Y-13028500D01*
X11179881Y-12999928D01*
X11189405Y-12990405D01*
X11256071Y-13038024D02*
X11265595Y-13028500D01*
X11284643Y-13018976D01*
X11332262Y-13018976D01*
X11351309Y-13028500D01*
X11360833Y-13038024D01*
X11370357Y-13057071D01*
X11370357Y-13076119D01*
X11360833Y-13104690D01*
X11246548Y-13218976D01*
X11370357Y-13218976D01*
X11608452Y-13218976D02*
X11608452Y-13018976D01*
X11694167Y-13218976D02*
X11694167Y-13114214D01*
X11684643Y-13095167D01*
X11665595Y-13085643D01*
X11637024Y-13085643D01*
X11617976Y-13095167D01*
X11608452Y-13104690D01*
X11817976Y-13218976D02*
X11798928Y-13209452D01*
X11789405Y-13199928D01*
X11779881Y-13180881D01*
X11779881Y-13123738D01*
X11789405Y-13104690D01*
X11798928Y-13095167D01*
X11817976Y-13085643D01*
X11846548Y-13085643D01*
X11865595Y-13095167D01*
X11875119Y-13104690D01*
X11884643Y-13123738D01*
X11884643Y-13180881D01*
X11875119Y-13199928D01*
X11865595Y-13209452D01*
X11846548Y-13218976D01*
X11817976Y-13218976D01*
X11998928Y-13218976D02*
X11979881Y-13209452D01*
X11970357Y-13190405D01*
X11970357Y-13018976D01*
X12151309Y-13209452D02*
X12132262Y-13218976D01*
X12094167Y-13218976D01*
X12075119Y-13209452D01*
X12065595Y-13190405D01*
X12065595Y-13114214D01*
X12075119Y-13095167D01*
X12094167Y-13085643D01*
X12132262Y-13085643D01*
X12151309Y-13095167D01*
X12160833Y-13114214D01*
X12160833Y-13133262D01*
X12065595Y-13152309D01*
X12237024Y-13209452D02*
X12256071Y-13218976D01*
X12294167Y-13218976D01*
X12313214Y-13209452D01*
X12322738Y-13190405D01*
X12322738Y-13180881D01*
X12313214Y-13161833D01*
X12294167Y-13152309D01*
X12265595Y-13152309D01*
X12246548Y-13142786D01*
X12237024Y-13123738D01*
X12237024Y-13114214D01*
X12246548Y-13095167D01*
X12265595Y-13085643D01*
X12294167Y-13085643D01*
X12313214Y-13095167D01*
X12389405Y-13295167D02*
X12398928Y-13285643D01*
X12417976Y-13257071D01*
X12427500Y-13238024D01*
X12437024Y-13209452D01*
X12446548Y-13161833D01*
X12446548Y-13123738D01*
X12437024Y-13076119D01*
X12427500Y-13047548D01*
X12417976Y-13028500D01*
X12398928Y-12999928D01*
X12389405Y-12990405D01*
D16*
X7465500Y-13316500D02*
X7617500Y-13468500D01*
X7617500Y-13316500D02*
X7465500Y-13468500D01*
X7617500Y-13392500D02*
G75*
G03*
X7617500Y-13392500I-76000J0D01*
G01*
D11*
X7979881Y-13482976D02*
X7865595Y-13482976D01*
X7922738Y-13482976D02*
X7922738Y-13282976D01*
X7903690Y-13311548D01*
X7884643Y-13330595D01*
X7865595Y-13340119D01*
X8065595Y-13463928D02*
X8075119Y-13473452D01*
X8065595Y-13482976D01*
X8056071Y-13473452D01*
X8065595Y-13463928D01*
X8065595Y-13482976D01*
X8256071Y-13282976D02*
X8160833Y-13282976D01*
X8151309Y-13378214D01*
X8160833Y-13368690D01*
X8179881Y-13359167D01*
X8227500Y-13359167D01*
X8246548Y-13368690D01*
X8256071Y-13378214D01*
X8265595Y-13397262D01*
X8265595Y-13444881D01*
X8256071Y-13463928D01*
X8246548Y-13473452D01*
X8227500Y-13482976D01*
X8179881Y-13482976D01*
X8160833Y-13473452D01*
X8151309Y-13463928D01*
X8341786Y-13302024D02*
X8351309Y-13292500D01*
X8370357Y-13282976D01*
X8417976Y-13282976D01*
X8437024Y-13292500D01*
X8446548Y-13302024D01*
X8456071Y-13321071D01*
X8456071Y-13340119D01*
X8446548Y-13368690D01*
X8332262Y-13482976D01*
X8456071Y-13482976D01*
X8579881Y-13282976D02*
X8598929Y-13282976D01*
X8617976Y-13292500D01*
X8627500Y-13302024D01*
X8637024Y-13321071D01*
X8646548Y-13359167D01*
X8646548Y-13406786D01*
X8637024Y-13444881D01*
X8627500Y-13463928D01*
X8617976Y-13473452D01*
X8598929Y-13482976D01*
X8579881Y-13482976D01*
X8560833Y-13473452D01*
X8551310Y-13463928D01*
X8541786Y-13444881D01*
X8532262Y-13406786D01*
X8532262Y-13359167D01*
X8541786Y-13321071D01*
X8551310Y-13302024D01*
X8560833Y-13292500D01*
X8579881Y-13282976D01*
X8732262Y-13482976D02*
X8732262Y-13349643D01*
X8732262Y-13368690D02*
X8741786Y-13359167D01*
X8760833Y-13349643D01*
X8789405Y-13349643D01*
X8808452Y-13359167D01*
X8817976Y-13378214D01*
X8817976Y-13482976D01*
X8817976Y-13378214D02*
X8827500Y-13359167D01*
X8846548Y-13349643D01*
X8875119Y-13349643D01*
X8894167Y-13359167D01*
X8903690Y-13378214D01*
X8903690Y-13482976D01*
X8998929Y-13482976D02*
X8998929Y-13349643D01*
X8998929Y-13368690D02*
X9008452Y-13359167D01*
X9027500Y-13349643D01*
X9056071Y-13349643D01*
X9075119Y-13359167D01*
X9084643Y-13378214D01*
X9084643Y-13482976D01*
X9084643Y-13378214D02*
X9094167Y-13359167D01*
X9113214Y-13349643D01*
X9141786Y-13349643D01*
X9160833Y-13359167D01*
X9170357Y-13378214D01*
X9170357Y-13482976D01*
X9560833Y-13273452D02*
X9389405Y-13530595D01*
X9817976Y-13282976D02*
X9837024Y-13282976D01*
X9856071Y-13292500D01*
X9865595Y-13302024D01*
X9875119Y-13321071D01*
X9884643Y-13359167D01*
X9884643Y-13406786D01*
X9875119Y-13444881D01*
X9865595Y-13463928D01*
X9856071Y-13473452D01*
X9837024Y-13482976D01*
X9817976Y-13482976D01*
X9798929Y-13473452D01*
X9789405Y-13463928D01*
X9779881Y-13444881D01*
X9770357Y-13406786D01*
X9770357Y-13359167D01*
X9779881Y-13321071D01*
X9789405Y-13302024D01*
X9798929Y-13292500D01*
X9817976Y-13282976D01*
X9970357Y-13463928D02*
X9979881Y-13473452D01*
X9970357Y-13482976D01*
X9960833Y-13473452D01*
X9970357Y-13463928D01*
X9970357Y-13482976D01*
X10103690Y-13282976D02*
X10122738Y-13282976D01*
X10141786Y-13292500D01*
X10151310Y-13302024D01*
X10160833Y-13321071D01*
X10170357Y-13359167D01*
X10170357Y-13406786D01*
X10160833Y-13444881D01*
X10151310Y-13463928D01*
X10141786Y-13473452D01*
X10122738Y-13482976D01*
X10103690Y-13482976D01*
X10084643Y-13473452D01*
X10075119Y-13463928D01*
X10065595Y-13444881D01*
X10056071Y-13406786D01*
X10056071Y-13359167D01*
X10065595Y-13321071D01*
X10075119Y-13302024D01*
X10084643Y-13292500D01*
X10103690Y-13282976D01*
X10351310Y-13282976D02*
X10256071Y-13282976D01*
X10246548Y-13378214D01*
X10256071Y-13368690D01*
X10275119Y-13359167D01*
X10322738Y-13359167D01*
X10341786Y-13368690D01*
X10351310Y-13378214D01*
X10360833Y-13397262D01*
X10360833Y-13444881D01*
X10351310Y-13463928D01*
X10341786Y-13473452D01*
X10322738Y-13482976D01*
X10275119Y-13482976D01*
X10256071Y-13473452D01*
X10246548Y-13463928D01*
X10456071Y-13482976D02*
X10494167Y-13482976D01*
X10513214Y-13473452D01*
X10522738Y-13463928D01*
X10541786Y-13435357D01*
X10551310Y-13397262D01*
X10551310Y-13321071D01*
X10541786Y-13302024D01*
X10532262Y-13292500D01*
X10513214Y-13282976D01*
X10475119Y-13282976D01*
X10456071Y-13292500D01*
X10446548Y-13302024D01*
X10437024Y-13321071D01*
X10437024Y-13368690D01*
X10446548Y-13387738D01*
X10456071Y-13397262D01*
X10475119Y-13406786D01*
X10513214Y-13406786D01*
X10532262Y-13397262D01*
X10541786Y-13387738D01*
X10551310Y-13368690D01*
X10665595Y-13368690D02*
X10646548Y-13359167D01*
X10637024Y-13349643D01*
X10627500Y-13330595D01*
X10627500Y-13321071D01*
X10637024Y-13302024D01*
X10646548Y-13292500D01*
X10665595Y-13282976D01*
X10703690Y-13282976D01*
X10722738Y-13292500D01*
X10732262Y-13302024D01*
X10741786Y-13321071D01*
X10741786Y-13330595D01*
X10732262Y-13349643D01*
X10722738Y-13359167D01*
X10703690Y-13368690D01*
X10665595Y-13368690D01*
X10646548Y-13378214D01*
X10637024Y-13387738D01*
X10627500Y-13406786D01*
X10627500Y-13444881D01*
X10637024Y-13463928D01*
X10646548Y-13473452D01*
X10665595Y-13482976D01*
X10703690Y-13482976D01*
X10722738Y-13473452D01*
X10732262Y-13463928D01*
X10741786Y-13444881D01*
X10741786Y-13406786D01*
X10732262Y-13387738D01*
X10722738Y-13378214D01*
X10703690Y-13368690D01*
X10817976Y-13282976D02*
X10817976Y-13321071D01*
X10894167Y-13282976D02*
X10894167Y-13321071D01*
X11189405Y-13559167D02*
X11179881Y-13549643D01*
X11160833Y-13521071D01*
X11151310Y-13502024D01*
X11141786Y-13473452D01*
X11132262Y-13425833D01*
X11132262Y-13387738D01*
X11141786Y-13340119D01*
X11151310Y-13311548D01*
X11160833Y-13292500D01*
X11179881Y-13263928D01*
X11189405Y-13254405D01*
X11370357Y-13482976D02*
X11256071Y-13482976D01*
X11313214Y-13482976D02*
X11313214Y-13282976D01*
X11294167Y-13311548D01*
X11275119Y-13330595D01*
X11256071Y-13340119D01*
X11560833Y-13482976D02*
X11446548Y-13482976D01*
X11503690Y-13482976D02*
X11503690Y-13282976D01*
X11484643Y-13311548D01*
X11465595Y-13330595D01*
X11446548Y-13340119D01*
X11798928Y-13482976D02*
X11798928Y-13282976D01*
X11884643Y-13482976D02*
X11884643Y-13378214D01*
X11875119Y-13359167D01*
X11856071Y-13349643D01*
X11827500Y-13349643D01*
X11808452Y-13359167D01*
X11798928Y-13368690D01*
X12008452Y-13482976D02*
X11989405Y-13473452D01*
X11979881Y-13463928D01*
X11970357Y-13444881D01*
X11970357Y-13387738D01*
X11979881Y-13368690D01*
X11989405Y-13359167D01*
X12008452Y-13349643D01*
X12037024Y-13349643D01*
X12056071Y-13359167D01*
X12065595Y-13368690D01*
X12075119Y-13387738D01*
X12075119Y-13444881D01*
X12065595Y-13463928D01*
X12056071Y-13473452D01*
X12037024Y-13482976D01*
X12008452Y-13482976D01*
X12189405Y-13482976D02*
X12170357Y-13473452D01*
X12160833Y-13454405D01*
X12160833Y-13282976D01*
X12341786Y-13473452D02*
X12322738Y-13482976D01*
X12284643Y-13482976D01*
X12265595Y-13473452D01*
X12256071Y-13454405D01*
X12256071Y-13378214D01*
X12265595Y-13359167D01*
X12284643Y-13349643D01*
X12322738Y-13349643D01*
X12341786Y-13359167D01*
X12351309Y-13378214D01*
X12351309Y-13397262D01*
X12256071Y-13416309D01*
X12427500Y-13473452D02*
X12446548Y-13482976D01*
X12484643Y-13482976D01*
X12503690Y-13473452D01*
X12513214Y-13454405D01*
X12513214Y-13444881D01*
X12503690Y-13425833D01*
X12484643Y-13416309D01*
X12456071Y-13416309D01*
X12437024Y-13406786D01*
X12427500Y-13387738D01*
X12427500Y-13378214D01*
X12437024Y-13359167D01*
X12456071Y-13349643D01*
X12484643Y-13349643D01*
X12503690Y-13359167D01*
X12579881Y-13559167D02*
X12589405Y-13549643D01*
X12608452Y-13521071D01*
X12617976Y-13502024D01*
X12627500Y-13473452D01*
X12637024Y-13425833D01*
X12637024Y-13387738D01*
X12627500Y-13340119D01*
X12617976Y-13311548D01*
X12608452Y-13292500D01*
X12589405Y-13263928D01*
X12579881Y-13254405D01*
X7417500Y-13564500D02*
X7617500Y-13764500D01*
X7617500Y-13564500D02*
X7417500Y-13764500D01*
X7517500Y-13564500D02*
X7517500Y-13764500D01*
X7417500Y-13664500D02*
X7617500Y-13664500D01*
X7856071Y-13554976D02*
X7979881Y-13554976D01*
X7913214Y-13631167D01*
X7941786Y-13631167D01*
X7960833Y-13640690D01*
X7970357Y-13650214D01*
X7979881Y-13669262D01*
X7979881Y-13716881D01*
X7970357Y-13735928D01*
X7960833Y-13745452D01*
X7941786Y-13754976D01*
X7884643Y-13754976D01*
X7865595Y-13745452D01*
X7856071Y-13735928D01*
X8065595Y-13735928D02*
X8075119Y-13745452D01*
X8065595Y-13754976D01*
X8056071Y-13745452D01*
X8065595Y-13735928D01*
X8065595Y-13754976D01*
X8151309Y-13574024D02*
X8160833Y-13564500D01*
X8179881Y-13554976D01*
X8227500Y-13554976D01*
X8246548Y-13564500D01*
X8256071Y-13574024D01*
X8265595Y-13593071D01*
X8265595Y-13612119D01*
X8256071Y-13640690D01*
X8141786Y-13754976D01*
X8265595Y-13754976D01*
X8389405Y-13554976D02*
X8408452Y-13554976D01*
X8427500Y-13564500D01*
X8437024Y-13574024D01*
X8446548Y-13593071D01*
X8456071Y-13631167D01*
X8456071Y-13678786D01*
X8446548Y-13716881D01*
X8437024Y-13735928D01*
X8427500Y-13745452D01*
X8408452Y-13754976D01*
X8389405Y-13754976D01*
X8370357Y-13745452D01*
X8360833Y-13735928D01*
X8351309Y-13716881D01*
X8341786Y-13678786D01*
X8341786Y-13631167D01*
X8351309Y-13593071D01*
X8360833Y-13574024D01*
X8370357Y-13564500D01*
X8389405Y-13554976D01*
X8579881Y-13554976D02*
X8598929Y-13554976D01*
X8617976Y-13564500D01*
X8627500Y-13574024D01*
X8637024Y-13593071D01*
X8646548Y-13631167D01*
X8646548Y-13678786D01*
X8637024Y-13716881D01*
X8627500Y-13735928D01*
X8617976Y-13745452D01*
X8598929Y-13754976D01*
X8579881Y-13754976D01*
X8560833Y-13745452D01*
X8551310Y-13735928D01*
X8541786Y-13716881D01*
X8532262Y-13678786D01*
X8532262Y-13631167D01*
X8541786Y-13593071D01*
X8551310Y-13574024D01*
X8560833Y-13564500D01*
X8579881Y-13554976D01*
X8732262Y-13754976D02*
X8732262Y-13621643D01*
X8732262Y-13640690D02*
X8741786Y-13631167D01*
X8760833Y-13621643D01*
X8789405Y-13621643D01*
X8808452Y-13631167D01*
X8817976Y-13650214D01*
X8817976Y-13754976D01*
X8817976Y-13650214D02*
X8827500Y-13631167D01*
X8846548Y-13621643D01*
X8875119Y-13621643D01*
X8894167Y-13631167D01*
X8903690Y-13650214D01*
X8903690Y-13754976D01*
X8998929Y-13754976D02*
X8998929Y-13621643D01*
X8998929Y-13640690D02*
X9008452Y-13631167D01*
X9027500Y-13621643D01*
X9056071Y-13621643D01*
X9075119Y-13631167D01*
X9084643Y-13650214D01*
X9084643Y-13754976D01*
X9084643Y-13650214D02*
X9094167Y-13631167D01*
X9113214Y-13621643D01*
X9141786Y-13621643D01*
X9160833Y-13631167D01*
X9170357Y-13650214D01*
X9170357Y-13754976D01*
X9560833Y-13545452D02*
X9389405Y-13802595D01*
X9817976Y-13554976D02*
X9837024Y-13554976D01*
X9856071Y-13564500D01*
X9865595Y-13574024D01*
X9875119Y-13593071D01*
X9884643Y-13631167D01*
X9884643Y-13678786D01*
X9875119Y-13716881D01*
X9865595Y-13735928D01*
X9856071Y-13745452D01*
X9837024Y-13754976D01*
X9817976Y-13754976D01*
X9798929Y-13745452D01*
X9789405Y-13735928D01*
X9779881Y-13716881D01*
X9770357Y-13678786D01*
X9770357Y-13631167D01*
X9779881Y-13593071D01*
X9789405Y-13574024D01*
X9798929Y-13564500D01*
X9817976Y-13554976D01*
X9970357Y-13735928D02*
X9979881Y-13745452D01*
X9970357Y-13754976D01*
X9960833Y-13745452D01*
X9970357Y-13735928D01*
X9970357Y-13754976D01*
X10170357Y-13754976D02*
X10056071Y-13754976D01*
X10113214Y-13754976D02*
X10113214Y-13554976D01*
X10094167Y-13583548D01*
X10075119Y-13602595D01*
X10056071Y-13612119D01*
X10246548Y-13574024D02*
X10256071Y-13564500D01*
X10275119Y-13554976D01*
X10322738Y-13554976D01*
X10341786Y-13564500D01*
X10351310Y-13574024D01*
X10360833Y-13593071D01*
X10360833Y-13612119D01*
X10351310Y-13640690D01*
X10237024Y-13754976D01*
X10360833Y-13754976D01*
X10532262Y-13554976D02*
X10494167Y-13554976D01*
X10475119Y-13564500D01*
X10465595Y-13574024D01*
X10446548Y-13602595D01*
X10437024Y-13640690D01*
X10437024Y-13716881D01*
X10446548Y-13735928D01*
X10456071Y-13745452D01*
X10475119Y-13754976D01*
X10513214Y-13754976D01*
X10532262Y-13745452D01*
X10541786Y-13735928D01*
X10551310Y-13716881D01*
X10551310Y-13669262D01*
X10541786Y-13650214D01*
X10532262Y-13640690D01*
X10513214Y-13631167D01*
X10475119Y-13631167D01*
X10456071Y-13640690D01*
X10446548Y-13650214D01*
X10437024Y-13669262D01*
X10675119Y-13554976D02*
X10694167Y-13554976D01*
X10713214Y-13564500D01*
X10722738Y-13574024D01*
X10732262Y-13593071D01*
X10741786Y-13631167D01*
X10741786Y-13678786D01*
X10732262Y-13716881D01*
X10722738Y-13735928D01*
X10713214Y-13745452D01*
X10694167Y-13754976D01*
X10675119Y-13754976D01*
X10656071Y-13745452D01*
X10646548Y-13735928D01*
X10637024Y-13716881D01*
X10627500Y-13678786D01*
X10627500Y-13631167D01*
X10637024Y-13593071D01*
X10646548Y-13574024D01*
X10656071Y-13564500D01*
X10675119Y-13554976D01*
X10817976Y-13554976D02*
X10817976Y-13593071D01*
X10894167Y-13554976D02*
X10894167Y-13593071D01*
X11189405Y-13831167D02*
X11179881Y-13821643D01*
X11160833Y-13793071D01*
X11151310Y-13774024D01*
X11141786Y-13745452D01*
X11132262Y-13697833D01*
X11132262Y-13659738D01*
X11141786Y-13612119D01*
X11151310Y-13583548D01*
X11160833Y-13564500D01*
X11179881Y-13535928D01*
X11189405Y-13526405D01*
X11351309Y-13621643D02*
X11351309Y-13754976D01*
X11303690Y-13545452D02*
X11256071Y-13688309D01*
X11379881Y-13688309D01*
X11608452Y-13754976D02*
X11608452Y-13554976D01*
X11694167Y-13754976D02*
X11694167Y-13650214D01*
X11684643Y-13631167D01*
X11665595Y-13621643D01*
X11637024Y-13621643D01*
X11617976Y-13631167D01*
X11608452Y-13640690D01*
X11817976Y-13754976D02*
X11798928Y-13745452D01*
X11789405Y-13735928D01*
X11779881Y-13716881D01*
X11779881Y-13659738D01*
X11789405Y-13640690D01*
X11798928Y-13631167D01*
X11817976Y-13621643D01*
X11846548Y-13621643D01*
X11865595Y-13631167D01*
X11875119Y-13640690D01*
X11884643Y-13659738D01*
X11884643Y-13716881D01*
X11875119Y-13735928D01*
X11865595Y-13745452D01*
X11846548Y-13754976D01*
X11817976Y-13754976D01*
X11998928Y-13754976D02*
X11979881Y-13745452D01*
X11970357Y-13726405D01*
X11970357Y-13554976D01*
X12151309Y-13745452D02*
X12132262Y-13754976D01*
X12094167Y-13754976D01*
X12075119Y-13745452D01*
X12065595Y-13726405D01*
X12065595Y-13650214D01*
X12075119Y-13631167D01*
X12094167Y-13621643D01*
X12132262Y-13621643D01*
X12151309Y-13631167D01*
X12160833Y-13650214D01*
X12160833Y-13669262D01*
X12065595Y-13688309D01*
X12237024Y-13745452D02*
X12256071Y-13754976D01*
X12294167Y-13754976D01*
X12313214Y-13745452D01*
X12322738Y-13726405D01*
X12322738Y-13716881D01*
X12313214Y-13697833D01*
X12294167Y-13688309D01*
X12265595Y-13688309D01*
X12246548Y-13678786D01*
X12237024Y-13659738D01*
X12237024Y-13650214D01*
X12246548Y-13631167D01*
X12265595Y-13621643D01*
X12294167Y-13621643D01*
X12313214Y-13631167D01*
X12389405Y-13831167D02*
X12398928Y-13821643D01*
X12417976Y-13793071D01*
X12427500Y-13774024D01*
X12437024Y-13745452D01*
X12446548Y-13697833D01*
X12446548Y-13659738D01*
X12437024Y-13612119D01*
X12427500Y-13583548D01*
X12417976Y-13564500D01*
X12398928Y-13535928D01*
X12389405Y-13526405D01*
M02*
