G04 #@! TF.GenerationSoftware,KiCad,Pcbnew,(6.0.9)*
G04 #@! TF.CreationDate,2022-12-06T17:49:46-03:00*
G04 #@! TF.ProjectId,anemometer,616e656d-6f6d-4657-9465-722e6b696361,rev?*
G04 #@! TF.SameCoordinates,Original*
G04 #@! TF.FileFunction,Copper,L1,Top*
G04 #@! TF.FilePolarity,Positive*
%FSLAX46Y46*%
G04 Gerber Fmt 4.6, Leading zero omitted, Abs format (unit mm)*
G04 Created by KiCad (PCBNEW (6.0.9)) date 2022-12-06 17:49:46*
%MOMM*%
%LPD*%
G01*
G04 APERTURE LIST*
G04 #@! TA.AperFunction,ComponentPad*
%ADD10R,1.700000X1.700000*%
G04 #@! TD*
G04 #@! TA.AperFunction,ComponentPad*
%ADD11O,1.700000X1.700000*%
G04 #@! TD*
G04 #@! TA.AperFunction,ComponentPad*
%ADD12C,1.600000*%
G04 #@! TD*
G04 #@! TA.AperFunction,ComponentPad*
%ADD13O,1.600000X1.600000*%
G04 #@! TD*
G04 #@! TA.AperFunction,ComponentPad*
%ADD14C,6.400000*%
G04 #@! TD*
G04 #@! TA.AperFunction,ComponentPad*
%ADD15R,3.000000X3.000000*%
G04 #@! TD*
G04 #@! TA.AperFunction,ComponentPad*
%ADD16C,3.000000*%
G04 #@! TD*
G04 #@! TA.AperFunction,ComponentPad*
%ADD17C,2.400000*%
G04 #@! TD*
G04 #@! TA.AperFunction,ComponentPad*
%ADD18O,2.400000X2.400000*%
G04 #@! TD*
G04 #@! TA.AperFunction,ComponentPad*
%ADD19C,1.440000*%
G04 #@! TD*
G04 #@! TA.AperFunction,ComponentPad*
%ADD20R,1.500000X1.500000*%
G04 #@! TD*
G04 #@! TA.AperFunction,ComponentPad*
%ADD21C,1.500000*%
G04 #@! TD*
G04 #@! TA.AperFunction,ComponentPad*
%ADD22R,1.600000X1.600000*%
G04 #@! TD*
G04 #@! TA.AperFunction,ComponentPad*
%ADD23R,2.000000X1.905000*%
G04 #@! TD*
G04 #@! TA.AperFunction,ComponentPad*
%ADD24O,2.000000X1.905000*%
G04 #@! TD*
G04 #@! TA.AperFunction,ComponentPad*
%ADD25R,1.600000X2.400000*%
G04 #@! TD*
G04 #@! TA.AperFunction,ComponentPad*
%ADD26O,1.600000X2.400000*%
G04 #@! TD*
G04 #@! TA.AperFunction,ViaPad*
%ADD27C,2.500000*%
G04 #@! TD*
G04 #@! TA.AperFunction,Conductor*
%ADD28C,1.000000*%
G04 #@! TD*
G04 #@! TA.AperFunction,Conductor*
%ADD29C,2.000000*%
G04 #@! TD*
G04 #@! TA.AperFunction,Conductor*
%ADD30C,1.500000*%
G04 #@! TD*
G04 APERTURE END LIST*
D10*
X128270000Y-86360000D03*
D11*
X125730000Y-86360000D03*
X123190000Y-86360000D03*
X120650000Y-86360000D03*
X118110000Y-86360000D03*
X115570000Y-86360000D03*
X113030000Y-86360000D03*
X110490000Y-86360000D03*
X107950000Y-86360000D03*
X105410000Y-86360000D03*
X102870000Y-86360000D03*
X100330000Y-86360000D03*
X97790000Y-86360000D03*
X95250000Y-86360000D03*
X92710000Y-86360000D03*
D10*
X128270000Y-60960000D03*
D11*
X125730000Y-60960000D03*
X123190000Y-60960000D03*
X120650000Y-60960000D03*
X118110000Y-60960000D03*
X115570000Y-60960000D03*
X113030000Y-60960000D03*
X110490000Y-60960000D03*
X107950000Y-60960000D03*
X105410000Y-60960000D03*
X102870000Y-60960000D03*
X100330000Y-60960000D03*
X97790000Y-60960000D03*
X95250000Y-60960000D03*
X92710000Y-60960000D03*
D10*
X146025000Y-85065000D03*
D11*
X146025000Y-82525000D03*
X146025000Y-79985000D03*
X146025000Y-77445000D03*
X146025000Y-74905000D03*
X146025000Y-72365000D03*
D12*
X121920000Y-67310000D03*
D13*
X132080000Y-67310000D03*
D10*
X98425000Y-97155000D03*
D11*
X98425000Y-99695000D03*
X98425000Y-102235000D03*
D10*
X113665000Y-97155000D03*
D11*
X113665000Y-99695000D03*
X113665000Y-102235000D03*
D10*
X128905000Y-97155000D03*
D11*
X128905000Y-99695000D03*
X128905000Y-102235000D03*
D10*
X90805000Y-97155000D03*
D11*
X90805000Y-99695000D03*
X90805000Y-102235000D03*
D10*
X146025000Y-63490000D03*
D11*
X146025000Y-60950000D03*
X146025000Y-58410000D03*
X146025000Y-55870000D03*
D12*
X151765000Y-102235000D03*
D13*
X151765000Y-92075000D03*
D10*
X106045000Y-97155000D03*
D11*
X106045000Y-99695000D03*
X106045000Y-102235000D03*
D10*
X121285000Y-97155000D03*
D11*
X121285000Y-99695000D03*
X121285000Y-102235000D03*
D10*
X93995000Y-54585000D03*
D11*
X96535000Y-54585000D03*
X99075000Y-54585000D03*
D12*
X195620000Y-64770000D03*
X200620000Y-64770000D03*
D14*
X224790000Y-41910000D03*
D12*
X204470000Y-85090000D03*
D13*
X194310000Y-85090000D03*
D15*
X198120000Y-105410000D03*
D16*
X203200000Y-105410000D03*
X208280000Y-105410000D03*
X213360000Y-105410000D03*
D17*
X215900000Y-78740000D03*
D18*
X215900000Y-63500000D03*
D12*
X175260000Y-90170000D03*
D13*
X185420000Y-90170000D03*
D12*
X187960000Y-107950000D03*
D13*
X187960000Y-97790000D03*
D19*
X138440000Y-48260000D03*
X135900000Y-48260000D03*
X133360000Y-48260000D03*
D12*
X180340000Y-45720000D03*
D13*
X190500000Y-45720000D03*
D20*
X127910000Y-48260000D03*
D21*
X127910000Y-50800000D03*
X127910000Y-53340000D03*
D15*
X177800000Y-106680000D03*
D16*
X182880000Y-106680000D03*
D22*
X179070000Y-80010000D03*
D12*
X179070000Y-77510000D03*
D14*
X80010000Y-41910000D03*
D12*
X170180000Y-59690000D03*
D13*
X170180000Y-69850000D03*
D12*
X173355000Y-55880000D03*
D13*
X163195000Y-55880000D03*
D12*
X142240000Y-52070000D03*
D13*
X152400000Y-52070000D03*
D22*
X138430000Y-57150000D03*
D13*
X130810000Y-57150000D03*
D12*
X176530000Y-58420000D03*
D13*
X186690000Y-58420000D03*
D15*
X163830000Y-49530000D03*
D16*
X158750000Y-49530000D03*
D15*
X118110000Y-50800000D03*
D16*
X113030000Y-50800000D03*
X107950000Y-50800000D03*
D12*
X168910000Y-50800000D03*
D13*
X179070000Y-50800000D03*
D12*
X189230000Y-90170000D03*
D13*
X199390000Y-90170000D03*
D23*
X195890000Y-53340000D03*
D24*
X195890000Y-50800000D03*
X195890000Y-48260000D03*
D14*
X224790000Y-110490000D03*
D10*
X144145000Y-97155000D03*
D11*
X144145000Y-99695000D03*
X144145000Y-102235000D03*
D25*
X157490000Y-67325000D03*
D26*
X160030000Y-67325000D03*
X162570000Y-67325000D03*
X165110000Y-67325000D03*
X165110000Y-59705000D03*
X162570000Y-59705000D03*
X160030000Y-59705000D03*
X157490000Y-59705000D03*
D12*
X185420000Y-85090000D03*
D13*
X175260000Y-85090000D03*
D10*
X136525000Y-97155000D03*
D11*
X136525000Y-99695000D03*
X136525000Y-102235000D03*
D10*
X93965000Y-49530000D03*
D11*
X96505000Y-49530000D03*
X99045000Y-49530000D03*
D12*
X200660000Y-59690000D03*
D13*
X190500000Y-59690000D03*
D12*
X204470000Y-68580000D03*
D13*
X204470000Y-78740000D03*
D12*
X208280000Y-68580000D03*
D13*
X208280000Y-78740000D03*
D22*
X176530000Y-64770000D03*
D12*
X176530000Y-67270000D03*
D14*
X80010000Y-110490000D03*
D12*
X186690000Y-64770000D03*
X184190000Y-64770000D03*
X123190000Y-45720000D03*
D13*
X123190000Y-55880000D03*
D20*
X187960000Y-50800000D03*
D21*
X185420000Y-50800000D03*
X182880000Y-50800000D03*
D12*
X152400000Y-63500000D03*
X152400000Y-66000000D03*
D22*
X132080000Y-53340000D03*
D13*
X139700000Y-53340000D03*
D25*
X199395000Y-69860000D03*
D26*
X196855000Y-69860000D03*
X194315000Y-69860000D03*
X191775000Y-69860000D03*
X189235000Y-69860000D03*
X186695000Y-69860000D03*
X184155000Y-69860000D03*
X184155000Y-77480000D03*
X186695000Y-77480000D03*
X189235000Y-77480000D03*
X191775000Y-77480000D03*
X194315000Y-77480000D03*
X196855000Y-77480000D03*
X199395000Y-77480000D03*
D22*
X176530000Y-46990000D03*
D13*
X168910000Y-46990000D03*
D10*
X163805000Y-97760000D03*
D11*
X163805000Y-95220000D03*
X163805000Y-92680000D03*
X163805000Y-90140000D03*
X163805000Y-87600000D03*
X163805000Y-85060000D03*
X163805000Y-82520000D03*
X163805000Y-79980000D03*
X163805000Y-77440000D03*
X163805000Y-74900000D03*
D27*
X128270000Y-55880000D03*
X117475000Y-57150000D03*
X95250000Y-66675000D03*
X102235000Y-80010000D03*
X150495000Y-59055000D03*
X143510000Y-58420000D03*
X167640000Y-67310000D03*
X159995000Y-74905000D03*
X86360000Y-66675000D03*
X125730000Y-54610000D03*
X95250000Y-69850000D03*
X154305000Y-54610000D03*
X133350000Y-81280000D03*
X121920000Y-81280000D03*
X167640000Y-96520000D03*
X201930000Y-99060000D03*
X158750000Y-55880000D03*
X157480000Y-88900000D03*
X213360000Y-92710000D03*
X167640000Y-92710000D03*
X167640000Y-88900000D03*
X177800000Y-73660000D03*
X123190000Y-42545000D03*
X116205000Y-45720000D03*
D28*
X161290000Y-71120000D02*
X166370000Y-71120000D01*
X117475000Y-57150000D02*
X118745000Y-58420000D01*
X159995000Y-74905000D02*
X159995000Y-72415000D01*
X154305000Y-55245000D02*
X154305000Y-54610000D01*
D29*
X95250000Y-66675000D02*
X86360000Y-66675000D01*
D28*
X150495000Y-59055000D02*
X154305000Y-55245000D01*
X129032000Y-55118000D02*
X140208000Y-55118000D01*
X166370000Y-71120000D02*
X167640000Y-69850000D01*
X140208000Y-55118000D02*
X143510000Y-58420000D01*
X125730000Y-57785000D02*
X125730000Y-54610000D01*
X125095000Y-58420000D02*
X125730000Y-57785000D01*
X118745000Y-58420000D02*
X125095000Y-58420000D01*
D29*
X95250000Y-73025000D02*
X102235000Y-80010000D01*
D28*
X159995000Y-72415000D02*
X161290000Y-71120000D01*
D29*
X95250000Y-69850000D02*
X95250000Y-73025000D01*
D28*
X167640000Y-69850000D02*
X167640000Y-67310000D01*
X128270000Y-55880000D02*
X129032000Y-55118000D01*
X133350000Y-81280000D02*
X121920000Y-81280000D01*
D30*
X168910000Y-95250000D02*
X198120000Y-95250000D01*
X167640000Y-96520000D02*
X168910000Y-95250000D01*
X198120000Y-95250000D02*
X201930000Y-99060000D01*
D28*
X158750000Y-55880000D02*
X156210000Y-55880000D01*
X154940000Y-57150000D02*
X154940000Y-86360000D01*
X154940000Y-86360000D02*
X157480000Y-88900000D01*
X156210000Y-55880000D02*
X154940000Y-57150000D01*
D30*
X213360000Y-92710000D02*
X167640000Y-92710000D01*
D28*
X176530000Y-73660000D02*
X177800000Y-73660000D01*
X167640000Y-82550000D02*
X176530000Y-73660000D01*
X167640000Y-88900000D02*
X167640000Y-82550000D01*
D29*
X116205000Y-45720000D02*
X119380000Y-42545000D01*
X119380000Y-42545000D02*
X123190000Y-42545000D01*
M02*
