M48
; DRILL file {KiCad (6.0.9)} date ter 06 dez 2022 17:51:49
; FORMAT={-:-/ absolute / metric / decimal}
; #@! TF.CreationDate,2022-12-06T17:51:49-03:00
; #@! TF.GenerationSoftware,Kicad,Pcbnew,(6.0.9)
; #@! TF.FileFunction,Plated,1,2,PTH
FMAT,2
METRIC
; #@! TA.AperFunction,Plated,PTH,ViaDrill
T1C0.500
; #@! TA.AperFunction,Plated,PTH,ComponentDrill
T2C0.800
; #@! TA.AperFunction,Plated,PTH,ComponentDrill
T3C1.000
; #@! TA.AperFunction,Plated,PTH,ComponentDrill
T4C1.100
; #@! TA.AperFunction,Plated,PTH,ComponentDrill
T5C1.200
; #@! TA.AperFunction,Plated,PTH,ComponentDrill
T6C1.520
; #@! TA.AperFunction,Plated,PTH,ComponentDrill
T7C3.200
%
G90
G05
T1
X86.36Y-66.675
X95.25Y-66.675
X95.25Y-69.85
X102.235Y-80.01
X116.205Y-45.72
X117.475Y-57.15
X121.92Y-81.28
X123.19Y-42.545
X125.73Y-54.61
X128.27Y-55.88
X133.35Y-81.28
X143.51Y-58.42
X150.495Y-59.055
X154.305Y-54.61
X157.48Y-88.9
X158.75Y-55.88
X159.995Y-74.905
X167.64Y-67.31
X167.64Y-88.9
X167.64Y-92.71
X167.64Y-96.52
X177.8Y-73.66
X201.93Y-99.06
X213.36Y-92.71
T2
X121.92Y-67.31
X123.19Y-45.72
X123.19Y-55.88
X127.91Y-48.26
X127.91Y-50.8
X127.91Y-53.34
X130.81Y-57.15
X132.08Y-53.34
X132.08Y-67.31
X133.36Y-48.26
X135.9Y-48.26
X138.43Y-57.15
X138.44Y-48.26
X139.7Y-53.34
X142.24Y-52.07
X151.765Y-92.075
X151.765Y-102.235
X152.4Y-52.07
X152.4Y-63.5
X152.4Y-66.0
X157.49Y-59.705
X157.49Y-67.325
X160.03Y-59.705
X160.03Y-67.325
X162.57Y-59.705
X162.57Y-67.325
X163.195Y-55.88
X165.11Y-59.705
X165.11Y-67.325
X168.91Y-46.99
X168.91Y-50.8
X170.18Y-59.69
X170.18Y-69.85
X173.355Y-55.88
X175.26Y-85.09
X175.26Y-90.17
X176.53Y-46.99
X176.53Y-58.42
X176.53Y-64.77
X176.53Y-67.27
X179.07Y-50.8
X179.07Y-77.51
X179.07Y-80.01
X180.34Y-45.72
X182.88Y-50.8
X184.155Y-69.86
X184.155Y-77.48
X184.19Y-64.77
X185.42Y-50.8
X185.42Y-85.09
X185.42Y-90.17
X186.69Y-58.42
X186.69Y-64.77
X186.695Y-69.86
X186.695Y-77.48
X187.96Y-50.8
X187.96Y-97.79
X187.96Y-107.95
X189.23Y-90.17
X189.235Y-69.86
X189.235Y-77.48
X190.5Y-45.72
X190.5Y-59.69
X191.775Y-69.86
X191.775Y-77.48
X194.31Y-85.09
X194.315Y-69.86
X194.315Y-77.48
X195.62Y-64.77
X196.855Y-69.86
X196.855Y-77.48
X199.39Y-90.17
X199.395Y-69.86
X199.395Y-77.48
X200.62Y-64.77
X200.66Y-59.69
X204.47Y-68.58
X204.47Y-78.74
X204.47Y-85.09
X208.28Y-68.58
X208.28Y-78.74
T3
X90.805Y-97.155
X90.805Y-99.695
X90.805Y-102.235
X92.71Y-60.96
X92.71Y-86.36
X93.965Y-49.53
X93.995Y-54.585
X95.25Y-60.96
X95.25Y-86.36
X96.505Y-49.53
X96.535Y-54.585
X97.79Y-60.96
X97.79Y-86.36
X98.425Y-97.155
X98.425Y-99.695
X98.425Y-102.235
X99.045Y-49.53
X99.075Y-54.585
X100.33Y-60.96
X100.33Y-86.36
X102.87Y-60.96
X102.87Y-86.36
X105.41Y-60.96
X105.41Y-86.36
X106.045Y-97.155
X106.045Y-99.695
X106.045Y-102.235
X107.95Y-60.96
X107.95Y-86.36
X110.49Y-60.96
X110.49Y-86.36
X113.03Y-60.96
X113.03Y-86.36
X113.665Y-97.155
X113.665Y-99.695
X113.665Y-102.235
X115.57Y-60.96
X115.57Y-86.36
X118.11Y-60.96
X118.11Y-86.36
X120.65Y-60.96
X120.65Y-86.36
X121.285Y-97.155
X121.285Y-99.695
X121.285Y-102.235
X123.19Y-60.96
X123.19Y-86.36
X125.73Y-60.96
X125.73Y-86.36
X128.27Y-60.96
X128.27Y-86.36
X128.905Y-97.155
X128.905Y-99.695
X128.905Y-102.235
X136.525Y-97.155
X136.525Y-99.695
X136.525Y-102.235
X144.145Y-97.155
X144.145Y-99.695
X144.145Y-102.235
X146.025Y-55.87
X146.025Y-58.41
X146.025Y-60.95
X146.025Y-63.49
X146.025Y-72.365
X146.025Y-74.905
X146.025Y-77.445
X146.025Y-79.985
X146.025Y-82.525
X146.025Y-85.065
X163.805Y-74.9
X163.805Y-77.44
X163.805Y-79.98
X163.805Y-82.52
X163.805Y-85.06
X163.805Y-87.6
X163.805Y-90.14
X163.805Y-92.68
X163.805Y-95.22
X163.805Y-97.76
T4
X195.89Y-48.26
X195.89Y-50.8
X195.89Y-53.34
T5
X215.9Y-63.5
X215.9Y-78.74
T6
X107.95Y-50.8
X113.03Y-50.8
X118.11Y-50.8
X158.75Y-49.53
X163.83Y-49.53
X177.8Y-106.68
X182.88Y-106.68
X198.12Y-105.41
X203.2Y-105.41
X208.28Y-105.41
X213.36Y-105.41
T7
X80.01Y-41.91
X80.01Y-110.49
X224.79Y-41.91
X224.79Y-110.49
T0
M30
