G04 #@! TF.GenerationSoftware,KiCad,Pcbnew,(6.0.9)*
G04 #@! TF.CreationDate,2022-12-06T17:49:46-03:00*
G04 #@! TF.ProjectId,anemometer,616e656d-6f6d-4657-9465-722e6b696361,rev?*
G04 #@! TF.SameCoordinates,Original*
G04 #@! TF.FileFunction,Soldermask,Bot*
G04 #@! TF.FilePolarity,Negative*
%FSLAX46Y46*%
G04 Gerber Fmt 4.6, Leading zero omitted, Abs format (unit mm)*
G04 Created by KiCad (PCBNEW (6.0.9)) date 2022-12-06 17:49:46*
%MOMM*%
%LPD*%
G01*
G04 APERTURE LIST*
%ADD10R,1.700000X1.700000*%
%ADD11O,1.700000X1.700000*%
%ADD12C,1.600000*%
%ADD13O,1.600000X1.600000*%
%ADD14C,6.400000*%
%ADD15R,3.000000X3.000000*%
%ADD16C,3.000000*%
%ADD17C,2.400000*%
%ADD18O,2.400000X2.400000*%
%ADD19C,1.440000*%
%ADD20R,1.500000X1.500000*%
%ADD21C,1.500000*%
%ADD22R,1.600000X1.600000*%
%ADD23O,3.500000X3.500000*%
%ADD24R,2.000000X1.905000*%
%ADD25O,2.000000X1.905000*%
%ADD26R,1.600000X2.400000*%
%ADD27O,1.600000X2.400000*%
G04 APERTURE END LIST*
D10*
X128270000Y-86360000D03*
D11*
X125730000Y-86360000D03*
X123190000Y-86360000D03*
X120650000Y-86360000D03*
X118110000Y-86360000D03*
X115570000Y-86360000D03*
X113030000Y-86360000D03*
X110490000Y-86360000D03*
X107950000Y-86360000D03*
X105410000Y-86360000D03*
X102870000Y-86360000D03*
X100330000Y-86360000D03*
X97790000Y-86360000D03*
X95250000Y-86360000D03*
X92710000Y-86360000D03*
D10*
X128270000Y-60960000D03*
D11*
X125730000Y-60960000D03*
X123190000Y-60960000D03*
X120650000Y-60960000D03*
X118110000Y-60960000D03*
X115570000Y-60960000D03*
X113030000Y-60960000D03*
X110490000Y-60960000D03*
X107950000Y-60960000D03*
X105410000Y-60960000D03*
X102870000Y-60960000D03*
X100330000Y-60960000D03*
X97790000Y-60960000D03*
X95250000Y-60960000D03*
X92710000Y-60960000D03*
D10*
X146025000Y-85065000D03*
D11*
X146025000Y-82525000D03*
X146025000Y-79985000D03*
X146025000Y-77445000D03*
X146025000Y-74905000D03*
X146025000Y-72365000D03*
D12*
X121920000Y-67310000D03*
D13*
X132080000Y-67310000D03*
D10*
X98425000Y-97155000D03*
D11*
X98425000Y-99695000D03*
X98425000Y-102235000D03*
D10*
X113665000Y-97155000D03*
D11*
X113665000Y-99695000D03*
X113665000Y-102235000D03*
D10*
X128905000Y-97155000D03*
D11*
X128905000Y-99695000D03*
X128905000Y-102235000D03*
D10*
X90805000Y-97155000D03*
D11*
X90805000Y-99695000D03*
X90805000Y-102235000D03*
D10*
X146025000Y-63490000D03*
D11*
X146025000Y-60950000D03*
X146025000Y-58410000D03*
X146025000Y-55870000D03*
D12*
X151765000Y-102235000D03*
D13*
X151765000Y-92075000D03*
D10*
X106045000Y-97155000D03*
D11*
X106045000Y-99695000D03*
X106045000Y-102235000D03*
D10*
X121285000Y-97155000D03*
D11*
X121285000Y-99695000D03*
X121285000Y-102235000D03*
D10*
X93995000Y-54585000D03*
D11*
X96535000Y-54585000D03*
X99075000Y-54585000D03*
D12*
X195620000Y-64770000D03*
X200620000Y-64770000D03*
D14*
X224790000Y-41910000D03*
D12*
X204470000Y-85090000D03*
D13*
X194310000Y-85090000D03*
D15*
X198120000Y-105410000D03*
D16*
X203200000Y-105410000D03*
X208280000Y-105410000D03*
X213360000Y-105410000D03*
D17*
X215900000Y-78740000D03*
D18*
X215900000Y-63500000D03*
D12*
X175260000Y-90170000D03*
D13*
X185420000Y-90170000D03*
D12*
X187960000Y-107950000D03*
D13*
X187960000Y-97790000D03*
D19*
X138440000Y-48260000D03*
X135900000Y-48260000D03*
X133360000Y-48260000D03*
D12*
X180340000Y-45720000D03*
D13*
X190500000Y-45720000D03*
D20*
X127910000Y-48260000D03*
D21*
X127910000Y-50800000D03*
X127910000Y-53340000D03*
D15*
X177800000Y-106680000D03*
D16*
X182880000Y-106680000D03*
D22*
X179070000Y-80010000D03*
D12*
X179070000Y-77510000D03*
D14*
X80010000Y-41910000D03*
D12*
X170180000Y-59690000D03*
D13*
X170180000Y-69850000D03*
D12*
X173355000Y-55880000D03*
D13*
X163195000Y-55880000D03*
D12*
X142240000Y-52070000D03*
D13*
X152400000Y-52070000D03*
D22*
X138430000Y-57150000D03*
D13*
X130810000Y-57150000D03*
D12*
X176530000Y-58420000D03*
D13*
X186690000Y-58420000D03*
D15*
X163830000Y-49530000D03*
D16*
X158750000Y-49530000D03*
D15*
X118110000Y-50800000D03*
D16*
X113030000Y-50800000D03*
X107950000Y-50800000D03*
D12*
X168910000Y-50800000D03*
D13*
X179070000Y-50800000D03*
D12*
X189230000Y-90170000D03*
D13*
X199390000Y-90170000D03*
D23*
X212550000Y-50800000D03*
D24*
X195890000Y-53340000D03*
D25*
X195890000Y-50800000D03*
X195890000Y-48260000D03*
D14*
X224790000Y-110490000D03*
D10*
X144145000Y-97155000D03*
D11*
X144145000Y-99695000D03*
X144145000Y-102235000D03*
D26*
X157490000Y-67325000D03*
D27*
X160030000Y-67325000D03*
X162570000Y-67325000D03*
X165110000Y-67325000D03*
X165110000Y-59705000D03*
X162570000Y-59705000D03*
X160030000Y-59705000D03*
X157490000Y-59705000D03*
D12*
X185420000Y-85090000D03*
D13*
X175260000Y-85090000D03*
D10*
X136525000Y-97155000D03*
D11*
X136525000Y-99695000D03*
X136525000Y-102235000D03*
D10*
X93965000Y-49530000D03*
D11*
X96505000Y-49530000D03*
X99045000Y-49530000D03*
D12*
X200660000Y-59690000D03*
D13*
X190500000Y-59690000D03*
D12*
X204470000Y-68580000D03*
D13*
X204470000Y-78740000D03*
D12*
X208280000Y-68580000D03*
D13*
X208280000Y-78740000D03*
D22*
X176530000Y-64770000D03*
D12*
X176530000Y-67270000D03*
D14*
X80010000Y-110490000D03*
D12*
X186690000Y-64770000D03*
X184190000Y-64770000D03*
X123190000Y-45720000D03*
D13*
X123190000Y-55880000D03*
D20*
X187960000Y-50800000D03*
D21*
X185420000Y-50800000D03*
X182880000Y-50800000D03*
D12*
X152400000Y-63500000D03*
X152400000Y-66000000D03*
D22*
X132080000Y-53340000D03*
D13*
X139700000Y-53340000D03*
D26*
X199395000Y-69860000D03*
D27*
X196855000Y-69860000D03*
X194315000Y-69860000D03*
X191775000Y-69860000D03*
X189235000Y-69860000D03*
X186695000Y-69860000D03*
X184155000Y-69860000D03*
X184155000Y-77480000D03*
X186695000Y-77480000D03*
X189235000Y-77480000D03*
X191775000Y-77480000D03*
X194315000Y-77480000D03*
X196855000Y-77480000D03*
X199395000Y-77480000D03*
D22*
X176530000Y-46990000D03*
D13*
X168910000Y-46990000D03*
D10*
X163805000Y-97760000D03*
D11*
X163805000Y-95220000D03*
X163805000Y-92680000D03*
X163805000Y-90140000D03*
X163805000Y-87600000D03*
X163805000Y-85060000D03*
X163805000Y-82520000D03*
X163805000Y-79980000D03*
X163805000Y-77440000D03*
X163805000Y-74900000D03*
M02*
